<svg id="stroke" xmlns="http://www.w3.org/2000/svg" viewBox="0 0 16 16"><defs><style>.cls-1{fill:none;stroke:#2d3340;stroke-linecap:round;stroke-linejoin:round;}</style></defs><rect class="cls-1" x="4.5" y="4.5" width="10" height="10" rx="1"/><path class="cls-1" d="M4.5,13H4a1,1,0,0,1-1-1V4A1,1,0,0,1,4,3h8a1,1,0,0,1,1,1v.5"/><path class="cls-1" d="M3,11.5H2.5a1,1,0,0,1-1-1v-8a1,1,0,0,1,1-1h8a1,1,0,0,1,1,1V3"/><line class="cls-1" x1="9.5" y1="7.5" x2="9.5" y2="11.5"/><line class="cls-1" x1="7.5" y1="9.5" x2="11.5" y2="9.5"/></svg>