<svg id="BTN_stroke_1_4px_" data-name="BTN – stroke (1,4px)" xmlns="http://www.w3.org/2000/svg" viewBox="0 0 16 16"><path d="M14.5,8.6V7.14a.58.58,0,0,0-.43-.55l-1.46-.36a4.67,4.67,0,0,0-.23-.51l.72-1.2A.56.56,0,0,0,13,3.83l-1-1a.56.56,0,0,0-.69-.09L10,3.49a3.17,3.17,0,0,0-.51-.2L9.15,1.93A.58.58,0,0,0,8.6,1.5H7.14a.58.58,0,0,0-.55.43L6.23,3.39a4.67,4.67,0,0,0-.51.23L4.52,2.9A.56.56,0,0,0,3.83,3l-1,1a.56.56,0,0,0-.09.69L3.49,6a3.17,3.17,0,0,0-.2.51l-1.36.34a.58.58,0,0,0-.43.55V8.86a.58.58,0,0,0,.43.55l1.46.36a4.67,4.67,0,0,0,.23.51l-.72,1.2a.56.56,0,0,0,.08.69l1,1a.56.56,0,0,0,.69.09L6,12.51a3.17,3.17,0,0,0,.51.2l.34,1.36a.58.58,0,0,0,.55.43H8.86a.58.58,0,0,0,.55-.43l.36-1.46a4.67,4.67,0,0,0,.51-.23l1.2.72a.56.56,0,0,0,.69-.08l1-1a.56.56,0,0,0,.09-.69L12.51,10a3.17,3.17,0,0,0,.2-.51l1.36-.34A.58.58,0,0,0,14.5,8.6ZM10.27,8A2.27,2.27,0,1,1,8,5.73,2.27,2.27,0,0,1,10.27,8Z" fill="none" stroke="#2d3340" stroke-miterlimit="10"/></svg>