<svg xmlns="http://www.w3.org/2000/svg" viewBox="0 0 96 96"><g id="back"><g opacity="0.4"><path d="M36.14,90.6,29.6,86.84c-5.51-3.15-8.93-10-8.93-19.63,0-19.25,13.51-42.71,30.11-52.3C59,10.16,66.49,9.69,71.93,12.78L79.18,17" fill="none" stroke="#8fb4ff" stroke-linecap="round" stroke-linejoin="round"/><path d="M29.22,86.6l-6.55-3.76c-5.51-3.15-8.93-10-8.93-19.63,0-19.25,13.51-42.71,30.12-52.3C52.09,6.16,59.56,5.69,65,8.78L72.25,13" fill="none" stroke="#8fb4ff" stroke-linecap="round" stroke-linejoin="round"/><path d="M22.29,82.6l-6.55-3.76c-5.51-3.15-8.93-10-8.93-19.63C6.81,40,20.32,16.5,36.93,6.91c8.23-4.75,15.7-5.22,21.14-2.13L65.32,9" fill="none" stroke="#8fb4ff" stroke-linecap="round" stroke-linejoin="round"/></g></g><g id="front"><path d="M57.71,88.74C41.11,98.33,27.6,90.46,27.6,71.21S41.11,28.5,57.71,18.91s30.12-1.72,30.12,17.53S74.32,79.15,57.71,88.74Z" fill="none" stroke="#8fb4ff" stroke-linecap="round" stroke-linejoin="round"/><path d="M36.14,90.6,29.6,86.84c-5.51-3.15-8.93-10-8.93-19.63,0-19.25,13.51-42.71,30.11-52.3C59,10.16,66.49,9.69,71.93,12.78L79.18,17" fill="none" stroke="#8fb4ff" stroke-linecap="round" stroke-linejoin="round"/><ellipse cx="56.65" cy="36.98" rx="6.64" ry="3.83" transform="translate(-3.59 67.77) rotate(-60.2)" fill="none" stroke="#8fb4ff" stroke-linecap="round" stroke-linejoin="round"/><path d="M62.51,66.18l-1.17.67v-19c0-2.25-1.58-3.16-3.52-2l-3.51,2a7.79,7.79,0,0,0-3.51,6.1c0,2.25,1.57,3.17,3.51,2V70.91l-1.17.67a7.77,7.77,0,0,0-3.51,6.1c0,2.25,1.57,3.17,3.51,2l9.37-5.41A7.77,7.77,0,0,0,66,68.22C66,66,64.45,65.06,62.51,66.18Z" fill="none" stroke="#8fb4ff" stroke-linecap="round" stroke-linejoin="round"/></g></svg>