<svg xmlns="http://www.w3.org/2000/svg" viewBox="0 0 96 96"><g id="back"><g opacity="0.4"><polygon points="27.21 56 27.21 62 34.14 58 34.14 52 27.21 56" fill="none" stroke="#8fb4ff" stroke-linecap="round" stroke-linejoin="round"/><polygon points="37.61 50 37.61 56 44.54 52 44.54 46 37.61 50" fill="none" stroke="#8fb4ff" stroke-linecap="round" stroke-linejoin="round"/><polygon points="48 44 48 50 54.93 46 54.93 40 48 44" fill="none" stroke="#8fb4ff" stroke-linecap="round" stroke-linejoin="round"/><polygon points="27.21 66 27.21 72 34.14 68 34.14 62 27.21 66" fill="none" stroke="#8fb4ff" stroke-linecap="round" stroke-linejoin="round"/><polygon points="37.61 60 37.61 66 44.54 62 44.54 56 37.61 60" fill="none" stroke="#8fb4ff" stroke-linecap="round" stroke-linejoin="round"/><polygon points="48 54 48 60 54.93 56 54.93 50 48 54" fill="none" stroke="#8fb4ff" stroke-linecap="round" stroke-linejoin="round"/><polygon points="27.21 76 27.21 82 34.14 78 34.14 72 27.21 76" fill="none" stroke="#8fb4ff" stroke-linecap="round" stroke-linejoin="round"/><polygon points="48 64 48 70 54.93 66 54.93 60 48 64" fill="none" stroke="#8fb4ff" stroke-linecap="round" stroke-linejoin="round"/><line x1="30.68" y1="60" x2="30.68" y2="64" fill="none" stroke="#8fb4ff" stroke-linecap="round" stroke-linejoin="round"/><line x1="30.68" y1="70" x2="30.55" y2="74.07" fill="none" stroke="#8fb4ff" stroke-linecap="round" stroke-linejoin="round"/><line x1="41.08" y1="54" x2="41.01" y2="58.04" fill="none" stroke="#8fb4ff" stroke-linecap="round" stroke-linejoin="round"/><line x1="51.48" y1="48.01" x2="51.48" y2="52.01" fill="none" stroke="#8fb4ff" stroke-linecap="round" stroke-linejoin="round"/><line x1="51.48" y1="57.99" x2="51.48" y2="62.01" fill="none" stroke="#8fb4ff" stroke-linecap="round" stroke-linejoin="round"/><line x1="27.22" y1="40" x2="54.93" y2="24" fill="none" stroke="#8fb4ff" stroke-linecap="round" stroke-linejoin="round"/><line x1="27.22" y1="46" x2="51.46" y2="32" fill="none" stroke="#8fb4ff" stroke-linecap="round" stroke-linejoin="round"/><polyline points="58.67 71.84 20.3 94 20.3 35.99 61.86 12 61.86 30.34" fill="none" stroke="#8fb4ff" stroke-linecap="round" stroke-linejoin="round"/><polyline points="20.3 94 13.36 90 13.36 32 54.93 8 61.86 12" fill="none" stroke="#8fb4ff" stroke-linecap="round" stroke-linejoin="round"/><polyline points="9.89 30 2.97 26 44.54 2 51.46 6 51.48 10.01" fill="none" stroke="#8fb4ff" stroke-linecap="round" stroke-linejoin="round"/><polyline points="9.9 88 9.89 30 51.46 6" fill="none" stroke="#8fb4ff" stroke-linecap="round" stroke-linejoin="round"/><polyline points="2.97 26 2.97 84 9.9 88 13.36 86" fill="none" stroke="#8fb4ff" stroke-linecap="round" stroke-linejoin="round"/><line x1="13.36" y1="32" x2="20.3" y2="35.99" fill="none" stroke="#8fb4ff" stroke-linecap="round" stroke-linejoin="round"/></g></g><g id="front"><ellipse cx="63.57" cy="32.99" rx="2.83" ry="4.9" transform="translate(30.35 96.45) rotate(-89.8)" fill="none" stroke="#8fb4ff" stroke-linecap="round" stroke-linejoin="round"/><polyline points="68.47 56.17 68.47 81.99 63.57 92.99 58.67 82 58.67 33" fill="none" stroke="#8fb4ff" stroke-linecap="round" stroke-linejoin="round"/><polygon points="93.03 4 80.91 11 80.91 83 93.03 76 93.03 4" fill="none" stroke="#8fb4ff" stroke-linecap="round" stroke-linejoin="round"/><polyline points="80.91 83 77.34 81.06 77.45 9" fill="none" stroke="#8fb4ff" stroke-linecap="round" stroke-linejoin="round"/><polyline points="93.03 4 89.57 2 77.45 9 80.91 11" fill="none" stroke="#8fb4ff" stroke-linecap="round" stroke-linejoin="round"/><line x1="80.91" y1="77" x2="86.11" y2="74" fill="none" stroke="#8fb4ff" stroke-linecap="round" stroke-linejoin="round"/><line x1="80.91" y1="57" x2="86.11" y2="54" fill="none" stroke="#8fb4ff" stroke-linecap="round" stroke-linejoin="round"/><line x1="80.91" y1="37" x2="86.11" y2="34" fill="none" stroke="#8fb4ff" stroke-linecap="round" stroke-linejoin="round"/><line x1="80.91" y1="73" x2="82.64" y2="72" fill="none" stroke="#8fb4ff" stroke-linecap="round" stroke-linejoin="round"/><line x1="80.91" y1="69" x2="82.64" y2="68" fill="none" stroke="#8fb4ff" stroke-linecap="round" stroke-linejoin="round"/><line x1="80.91" y1="65" x2="82.64" y2="64.01" fill="none" stroke="#8fb4ff" stroke-linecap="round" stroke-linejoin="round"/><line x1="80.91" y1="61" x2="82.64" y2="60.01" fill="none" stroke="#8fb4ff" stroke-linecap="round" stroke-linejoin="round"/><line x1="80.91" y1="53" x2="82.64" y2="52.01" fill="none" stroke="#8fb4ff" stroke-linecap="round" stroke-linejoin="round"/><line x1="80.91" y1="49" x2="82.64" y2="48.01" fill="none" stroke="#8fb4ff" stroke-linecap="round" stroke-linejoin="round"/><line x1="80.91" y1="45" x2="82.64" y2="44.01" fill="none" stroke="#8fb4ff" stroke-linecap="round" stroke-linejoin="round"/><line x1="80.91" y1="41" x2="82.64" y2="40.01" fill="none" stroke="#8fb4ff" stroke-linecap="round" stroke-linejoin="round"/><line x1="80.91" y1="17" x2="86.11" y2="14" fill="none" stroke="#8fb4ff" stroke-linecap="round" stroke-linejoin="round"/><line x1="80.91" y1="33" x2="82.64" y2="32.01" fill="none" stroke="#8fb4ff" stroke-linecap="round" stroke-linejoin="round"/><line x1="80.91" y1="29" x2="82.64" y2="28.01" fill="none" stroke="#8fb4ff" stroke-linecap="round" stroke-linejoin="round"/><line x1="80.91" y1="25" x2="82.64" y2="24.01" fill="none" stroke="#8fb4ff" stroke-linecap="round" stroke-linejoin="round"/><line x1="80.91" y1="21" x2="82.64" y2="20.01" fill="none" stroke="#8fb4ff" stroke-linecap="round" stroke-linejoin="round"/><polyline points="68.31 33.73 70.51 34.99 70.51 54.99 67.04 56.99 67.04 36.99 64.85 35.73" fill="none" stroke="#8fb4ff" stroke-linecap="round" stroke-linejoin="round"/><line x1="67.04" y1="36.99" x2="70.51" y2="34.99" fill="none" stroke="#8fb4ff" stroke-linecap="round" stroke-linejoin="round"/><path d="M68.18,82.63a3.07,3.07,0,0,1-1.14,1,7.66,7.66,0,0,1-6.93,0,3.1,3.1,0,0,1-1.24-1.19" fill="none" stroke="#8fb4ff" stroke-linecap="round" stroke-linejoin="round"/></g></svg>