<svg id="efbN8lMLAUx1" xmlns="http://www.w3.org/2000/svg" xmlns:xlink="http://www.w3.org/1999/xlink" viewBox="0 0 16 16" shape-rendering="geometricPrecision" text-rendering="geometricPrecision"><style><![CDATA[#efbN8lMLAUx1{pointer-events: all}#efbN8lMLAUx1 * {animation-play-state: paused !important}#efbN8lMLAUx1:hover * {animation-play-state: running !important}#efbN8lMLAUx4_to {animation: efbN8lMLAUx4_to__to 2500ms linear infinite normal forwards}@keyframes efbN8lMLAUx4_to__to { 0% {transform: translate(9.499037px,6.500963px);animation-timing-function: cubic-bezier(0.42,0,0.58,1)} 20% {transform: translate(12.499037px,3.500963px);animation-timing-function: cubic-bezier(0.42,0,0.58,1)} 36% {transform: translate(10.499037px,5.500963px);animation-timing-function: cubic-bezier(0.42,0,0.58,1)} 52% {transform: translate(12.499037px,3.500963px);animation-timing-function: cubic-bezier(0.42,0,0.58,1)} 68% {transform: translate(10.499037px,5.500963px);animation-timing-function: cubic-bezier(0.42,0,0.58,1)} 84% {transform: translate(12.499037px,3.500963px);animation-timing-function: cubic-bezier(0.42,0,0.58,1)} 100% {transform: translate(9.499037px,6.500963px)}}]]></style><g><path d="M11.5,13.2h-8c-.386599,0-.7-.313401-.7-.7v-8c0-.185652.07375-.363699.205025-.494975s.309323-.205025.494975-.205025h1c.386599,0,.7.313401.7.7s-.313401.7-.7.7h-.3v6.6h6.6v-.3c0-.386599.313401-.7.7-.7s.7.313401.7.7v1c0,.185652-.07375.363699-.205025.494975s-.309323.205025-.494975.205025Z" fill="#2d3340"/><g id="efbN8lMLAUx4_to" transform="translate(9.499037,6.500963)"><path d="M11.5,3.8h-4c-.386599,0-.7.313401-.7.7s.313401.7.7.7h2.31L7,8c-.269236.278968-.269236.721032,0,1c.278968.269236.721032.269236,1,0l2.8-2.81v2.31c0,.386599.313401.7.7.7s.7-.313401.7-.7v-4c0-.185652-.07375-.363699-.205025-.494975s-.309323-.205025-.494975-.205025Z" transform="translate(-9.499037,-6.500963)" fill="#2d3340"/></g></g></svg>