<svg xmlns="http://www.w3.org/2000/svg" viewBox="0 0 96 96"><g id="back"><g opacity="0.4"><path d="M24.73,72.25l-6.95-4a2,2,0,0,1-1-1.7V33.46a6,6,0,0,1,3-5.19L48.46,11.73a2,2,0,0,1,2,0l6.93,4" fill="none" stroke="#8fb4ff" stroke-linecap="round" stroke-linejoin="round"/><path d="M17.8,68.25l-7-4a2,2,0,0,1-1-1.7V29.46a6,6,0,0,1,3-5.19L41.54,7.73a2,2,0,0,1,2,0l6.93,4" fill="none" stroke="#8fb4ff" stroke-linecap="round" stroke-linejoin="round"/><path d="M10.87,64.25l-6.95-4A2,2,0,0,1,3,58.54V25.46a6,6,0,0,1,3-5.19L34.61,3.73a2,2,0,0,1,2,0l6.92,4" fill="none" stroke="#8fb4ff" stroke-linecap="round" stroke-linejoin="round"/><path d="M45.44,69.48,33.68,76.27a2,2,0,0,1-3-1.73V41.46a6,6,0,0,1,3-5.19L62.32,19.73a2,2,0,0,1,3,1.73V37.91" fill="none" stroke="#8fb4ff" stroke-linecap="round" stroke-linejoin="round"/><path d="M31.65,76.25l-6.94-4a2,2,0,0,1-1-1.7V37.46a6,6,0,0,1,3-5.19L55.39,15.73a2,2,0,0,1,2,0l6.93,4" fill="none" stroke="#8fb4ff" stroke-linecap="round" stroke-linejoin="round"/></g></g><g id="front"><path d="M93,56.31V50.92c0-1-.57-1.47-1.37-1.24L86.93,51a10.88,10.88,0,0,0-.72-1.45l2.31-5.79c.43-1.07.32-2.06-.27-2.4L85,39.46c-.59-.34-1.5.06-2.21,1l-4.13,5.26A11,11,0,0,0,77,45.9l-1.09-4.41c-.2-.82-.92-1.06-1.75-.58L69.48,43.6a4.05,4.05,0,0,0-1.75,2.59L66.56,52.3c-.55.56-1.09,1.15-1.61,1.76L61.1,53.6a2.7,2.7,0,0,0-2.21,1.59L55.6,60.91a2.73,2.73,0,0,0-.27,2.71L57.81,67c-.24.76-.46,1.52-.63,2.28L52.83,73a4.09,4.09,0,0,0-1.37,2.82v5.4c0,1,.57,1.47,1.37,1.24l4.68-1.35a10.31,10.31,0,0,0,.72,1.45l-2.31,5.8c-.43,1.07-.31,2.06.27,2.4l3.29,1.91c.59.34,1.5,0,2.21-1l4.13-5.25a12.27,12.27,0,0,0,1.65-.22l1.09,4.41c.2.81.92,1,1.75.57L75,88.57A4,4,0,0,0,76.71,86l1.17-6.1c.55-.57,1.09-1.15,1.61-1.76l3.85.45c.71.09,1.62-.57,2.21-1.59l3.29-5.71a2.75,2.75,0,0,0,.27-2.72l-2.48-3.35c.24-.77.46-1.53.64-2.29l4.34-3.77A4.07,4.07,0,0,0,93,56.31ZM79.46,61.9a16,16,0,0,1-7.24,12.58c-4,2.31-7.24.42-7.24-4.22a16,16,0,0,1,7.24-12.57C76.22,55.38,79.46,57.26,79.46,61.9Z" fill="none" stroke="#8fb4ff" stroke-linecap="round" stroke-linejoin="round"/><line x1="64.95" y1="54.06" x2="58" y2="50.05" fill="none" stroke="#8fb4ff" stroke-linecap="round" stroke-linejoin="round"/><line x1="57.81" y1="66.98" x2="50.88" y2="62.98" fill="none" stroke="#8fb4ff" stroke-linecap="round" stroke-linejoin="round"/><line x1="57.18" y1="69.26" x2="50.25" y2="65.26" fill="none" stroke="#8fb4ff" stroke-linecap="round" stroke-linejoin="round"/><line x1="66.56" y1="52.3" x2="59.63" y2="48.3" fill="none" stroke="#8fb4ff" stroke-linecap="round" stroke-linejoin="round"/><line x1="92.35" y1="49.69" x2="87.33" y2="46.79" fill="none" stroke="#8fb4ff" stroke-linecap="round" stroke-linejoin="round"/><line x1="69.06" y1="91.4" x2="64.19" y2="88.59" fill="none" stroke="#8fb4ff" stroke-linecap="round" stroke-linejoin="round"/><path d="M85.29,39.65,78,35.46c-.58-.34-1.49.06-2.2,1l-2.5,3.17" fill="none" stroke="#8fb4ff" stroke-linecap="round" stroke-linejoin="round"/><path d="M72.53,57.9a16,16,0,0,1-7.24,12.58l-.31.17" fill="none" stroke="#8fb4ff" stroke-linecap="round" stroke-linejoin="round"/><path d="M75.4,40.78l-6.87-4a1.23,1.23,0,0,0-1.33.09L62.55,39.6a4.05,4.05,0,0,0-1.75,2.59L59.63,48.3c-.55.56-1.09,1.15-1.61,1.76l-3.85-.46A2.67,2.67,0,0,0,52,51.19l-3.29,5.72a2.71,2.71,0,0,0-.28,2.71L50.88,63q-.36,1.14-.63,2.28L45.9,69a4.09,4.09,0,0,0-1.37,2.82v5.4a1.25,1.25,0,0,0,.59,1.2l6.87,4" fill="none" stroke="#8fb4ff" stroke-linecap="round" stroke-linejoin="round"/><path d="M50.19,81.38l-1.2,3c-.42,1.07-.31,2.06.27,2.4l6.93,4" fill="none" stroke="#8fb4ff" stroke-linecap="round" stroke-linejoin="round"/></g></svg>