<svg width="24" height="22" viewBox="0 0 24 22" fill="none" xmlns="http://www.w3.org/2000/svg">
<path d="M5.00001 16.6667L9.00001 20.6667V16.6667H20C20.3942 16.6676 20.7847 16.5906 21.1491 16.4401C21.5135 16.2897 21.8445 16.0687 22.1233 15.79C22.402 15.5112 22.623 15.1802 22.7734 14.8158C22.9239 14.4514 23.0009 14.0609 23 13.6667V3.66669C23.0009 3.27248 22.9239 2.88198 22.7734 2.51761C22.623 2.15323 22.402 1.82216 22.1233 1.54341C21.8445 1.26466 21.5135 1.04372 21.1491 0.893266C20.7847 0.742813 20.3942 0.665815 20 0.666694H4.00001C3.6058 0.665815 3.21529 0.742813 2.85092 0.893266C2.48654 1.04372 2.15548 1.26466 1.87673 1.54341C1.59798 1.82216 1.37703 2.15323 1.22658 2.51761C1.07613 2.88198 0.999128 3.27248 1.00001 3.66669V13.6667C0.999128 14.0609 1.07613 14.4514 1.22658 14.8158C1.37703 15.1802 1.59798 15.5112 1.87673 15.79C2.15548 16.0687 2.48654 16.2897 2.85092 16.4401C3.21529 16.5906 3.6058 16.6676 4.00001 16.6667H5.00001Z" stroke="#2D3340" stroke-linejoin="round"/>
</svg>
