<svg id="eAqidWTh3Ks1" xmlns="http://www.w3.org/2000/svg" xmlns:xlink="http://www.w3.org/1999/xlink" viewBox="0 0 16 16" shape-rendering="geometricPrecision" text-rendering="geometricPrecision"><style><![CDATA[#eAqidWTh3Ks1{pointer-events: all}#eAqidWTh3Ks1 * {animation-play-state: paused !important}#eAqidWTh3Ks1:hover * {animation-play-state: running !important}#eAqidWTh3Ks4_to {animation: eAqidWTh3Ks4_to__to 2500ms linear infinite normal forwards}@keyframes eAqidWTh3Ks4_to__to { 0% {transform: translate(9.49924px,6.500759px);animation-timing-function: cubic-bezier(0.42,0,0.58,1)} 20% {transform: translate(11.500759px,4.500759px);animation-timing-function: cubic-bezier(0.42,0,0.58,1)} 36% {transform: translate(10.500759px,5.500759px);animation-timing-function: cubic-bezier(0.42,0,0.58,1)} 52% {transform: translate(11.500759px,4.500759px);animation-timing-function: cubic-bezier(0.42,0,0.58,1)} 68% {transform: translate(10.500759px,5.500759px);animation-timing-function: cubic-bezier(0.42,0,0.58,1)} 84% {transform: translate(11.500759px,4.500759px);animation-timing-function: cubic-bezier(0.42,0,0.58,1)} 100% {transform: translate(9.500759px,6.500759px)}} #eAqidWTh3Ks10_to {animation: eAqidWTh3Ks10_to__to 2500ms linear infinite normal forwards}@keyframes eAqidWTh3Ks10_to__to { 0% {transform: translate(9.499241px,6.500759px);animation-timing-function: cubic-bezier(0.42,0,0.58,1)} 20% {transform: translate(12.499241px,3.500759px);animation-timing-function: cubic-bezier(0.42,0,0.58,1)} 36% {transform: translate(10.499241px,5.500759px);animation-timing-function: cubic-bezier(0.42,0,0.58,1)} 52% {transform: translate(12.499241px,3.500759px);animation-timing-function: cubic-bezier(0.42,0,0.58,1)} 68% {transform: translate(10.499241px,5.500759px);animation-timing-function: cubic-bezier(0.42,0,0.58,1)} 84% {transform: translate(12.499241px,3.500759px);animation-timing-function: cubic-bezier(0.42,0,0.58,1)} 100% {transform: translate(9.499241px,6.500759px)}}]]></style><g><g id="eAqidWTh3Ks10_to" transform="translate(9.499241,6.500759)"><path d="M11.5,4h-4c-.276142,0-.5.223858-.5.5s.223858.5.5.5h2.79L7.15,8.15c-.096677.090733-.151519.217414-.151519.35s.054842.259267.151519.35c.090733.096677.217414.151519.35.151519s.259267-.054842.35-.151519L11,5.71v2.79c0,.276142.223858.5.5.5s.5-.223858.5-.5v-4c0-.276142-.223858-.5-.5-.5Z" transform="translate(-9.499241,-6.500759)" fill="#2d3340"/></g><path d="M11.5,13h-8c-.276142,0-.5-.223858-.5-.5v-8c0-.276142.223858-.5.5-.5h1c.276142,0,.5.223858.5.5s-.223858.5-.5.5L4,5v7h7v-.5c0-.276142.223858-.5.5-.5s.5.223858.5.5v1c0,.276142-.223858.5-.5.5Z" fill="#2d3340"/></g></svg>
