<svg xmlns="http://www.w3.org/2000/svg" viewBox="0 0 96 96"><g id="back"><g opacity="0.4"><path d="M15.09,53c-2.38,1.37-4.31.25-4.31-2.51A9.55,9.55,0,0,1,15.09,43l1.73-1" fill="none" stroke="#8fb4ff" stroke-linecap="round" stroke-linejoin="round"/><path d="M20.28,70.09v7.74c0,2.73.94,4.66,2.47,5.59l7,4" fill="none" stroke="#8fb4ff" stroke-linecap="round" stroke-linejoin="round"/><path d="M27.21,66.09V81.83c0,5.54,3.87,7.79,8.65,5V71l3.42-8.87" fill="none" stroke="#8fb4ff" stroke-linecap="round" stroke-linejoin="round"/><path d="M16.82,62l-1.73,1a9.55,9.55,0,0,0-4.31,7.49c0,2.76,1.93,3.88,4.31,2.51l12.12-6.91" fill="none" stroke="#8fb4ff" stroke-linecap="round" stroke-linejoin="round"/><path d="M15.09,53l-1.73,1A9.53,9.53,0,0,0,9,61.49C9,64.25,11,65.37,13.36,64l1.73-1" fill="none" stroke="#8fb4ff" stroke-linecap="round" stroke-linejoin="round"/><path d="M5.53,61.54a9.19,9.19,0,0,0-1.7,4.94,3.08,3.08,0,0,0,1.25,2.8l7,4" fill="none" stroke="#8fb4ff" stroke-linecap="round" stroke-linejoin="round"/><path d="M3.84,46.48a3.08,3.08,0,0,0,1.22,2.79l7,4" fill="none" stroke="#8fb4ff" stroke-linecap="round" stroke-linejoin="round"/><path d="M6.37,50A9.57,9.57,0,0,0,2.1,57.48a3.09,3.09,0,0,0,1.23,2.79l7,4" fill="none" stroke="#8fb4ff" stroke-linecap="round" stroke-linejoin="round"/><path d="M8.1,39a9.56,9.56,0,0,0-4.26,7.46,3.08,3.08,0,0,0,1.22,2.79l7,4" fill="none" stroke="#8fb4ff" stroke-linecap="round" stroke-linejoin="round"/><path d="M44.54,48V17.2A9,9,0,0,1,49,9.4l3.12-1.8a3,3,0,0,1,4.5,2.6V34" fill="none" stroke="#8fb4ff" stroke-linecap="round" stroke-linejoin="round"/><path d="M16.82,42c-2.38,1.37-4.31.25-4.31-2.51A9.55,9.55,0,0,1,16.82,32L44.54,16l-6.93-4L9.88,28a9.56,9.56,0,0,0-4.31,7.49A3.09,3.09,0,0,0,6.8,38.27l7,4" fill="none" stroke="#8fb4ff" stroke-linecap="round" stroke-linejoin="round"/><path d="M37.67,12A9,9,0,0,1,42.08,5.4l3.13-1.8a3,3,0,0,1,3.14.09L55,7.5" fill="none" stroke="#8fb4ff" stroke-linecap="round" stroke-linejoin="round"/></g></g><g id="front"><path d="M53.89,90.6l-3.12,1.8a3,3,0,0,1-4.5-2.6V60.2a9,9,0,0,1,4.5-7.8l3.12-1.8a3,3,0,0,1,4.5,2.6V82.8A9,9,0,0,1,53.89,90.6Z" fill="none" stroke="#8fb4ff" stroke-linecap="round" stroke-linejoin="round"/><path d="M75.71,33.91V18.18c0-5.54-3.87-7.8-8.65-5V29L58.17,52.13" fill="none" stroke="#8fb4ff" stroke-linecap="round" stroke-linejoin="round"/><path d="M86.1,58c2.38-1.37,4.31-.25,4.31,2.51A9.55,9.55,0,0,1,86.1,68L58.39,84" fill="none" stroke="#8fb4ff" stroke-linecap="round" stroke-linejoin="round"/><path d="M87.83,47c2.38-1.37,4.31-.25,4.31,2.51A9.55,9.55,0,0,1,87.83,57L86.1,58" fill="none" stroke="#8fb4ff" stroke-linecap="round" stroke-linejoin="round"/><path d="M86.1,38l1.73-1a9.55,9.55,0,0,0,4.31-7.49c0-2.76-1.93-3.88-4.31-2.51L75.71,33.91" fill="none" stroke="#8fb4ff" stroke-linecap="round" stroke-linejoin="round"/><path d="M87.84,47l1.72-1a9.53,9.53,0,0,0,4.32-7.49c0-2.76-1.94-3.88-4.32-2.51l-1.73,1" fill="none" stroke="#8fb4ff" stroke-linecap="round" stroke-linejoin="round"/><path d="M75.71,28l6.93-4a3.07,3.07,0,0,1,3-.32l5.27,3.05" fill="none" stroke="#8fb4ff" stroke-linecap="round" stroke-linejoin="round"/><path d="M51.47,47.47,60.12,25V9.14h0c2.35-1.36,4.48-1.5,6-.64l7.16,4.12" fill="none" stroke="#8fb4ff" stroke-linecap="round" stroke-linejoin="round"/><path d="M47.82,92.43,41,88.5a3,3,0,0,1-1.69-2.7V56.2a9,9,0,0,1,4.5-7.8L47,46.6a3,3,0,0,1,3.15.09l6.6,3.81" fill="none" stroke="#8fb4ff" stroke-linecap="round" stroke-linejoin="round"/><line x1="60.12" y1="25" x2="67.06" y2="29" fill="none" stroke="#8fb4ff" stroke-linecap="round" stroke-linejoin="round"/><line x1="60.52" y1="9.23" x2="67.05" y2="13" fill="none" stroke="#8fb4ff" stroke-linecap="round" stroke-linejoin="round"/><line x1="92.53" y1="35.64" x2="90.45" y2="34.46" fill="none" stroke="#8fb4ff" stroke-linecap="round" stroke-linejoin="round"/></g></svg>