<svg width="22" height="24" viewBox="0 0 22 24" fill="none" xmlns="http://www.w3.org/2000/svg">
<path d="M14.3335 3.70001L12.6668 3.62668C12.4917 3.61925 12.317 3.64863 12.1539 3.71294C11.9908 3.77725 11.8431 3.87504 11.7202 4.00001L1.32683 14.38C1.26627 14.4452 1.21936 14.5218 1.18886 14.6053C1.15836 14.6889 1.14489 14.7777 1.14923 14.8665C1.15358 14.9554 1.17567 15.0424 1.21418 15.1226C1.25269 15.2028 1.30686 15.2744 1.3735 15.3333L9.11349 23.1067C9.17263 23.1774 9.24581 23.2351 9.32839 23.2761C9.41096 23.3172 9.50116 23.3406 9.59326 23.345C9.68536 23.3494 9.77737 23.3346 9.86347 23.3016C9.94957 23.2686 10.0279 23.2181 10.0935 23.1533L11.3068 21.94L18.8735 14.38L20.4935 12.76C20.6147 12.6309 20.709 12.4789 20.7708 12.3129C20.8326 12.1469 20.8607 11.9703 20.8535 11.7933L20.5135 4.66668C20.4877 4.48886 20.4013 4.3254 20.2689 4.20393C20.1365 4.08247 19.9662 4.01043 19.7868 4.00001L17.2935 3.88001L14.3335 3.70001Z" stroke="#2D3340" stroke-miterlimit="10"/>
<path d="M11.2461 21.9533L14.7794 23.2866C14.8619 23.3222 14.9508 23.3408 15.0406 23.3412C15.1305 23.3416 15.2195 23.3238 15.3023 23.289C15.3852 23.2541 15.4601 23.2028 15.5226 23.1383C15.5851 23.0737 15.6339 22.9972 15.6661 22.9133L18.5594 14.6666" stroke="#2D3340" stroke-miterlimit="10"/>
<path d="M17.8995 8.05997C17.9003 7.86537 17.8627 7.67252 17.7886 7.49256C17.7145 7.3126 17.6055 7.14909 17.4679 7.01149C17.3303 6.87388 17.1668 6.7649 16.9869 6.69083C16.8069 6.61677 16.6141 6.57909 16.4195 6.57997C16.0275 6.58173 15.652 6.73822 15.3749 7.01539C15.0977 7.29257 14.9412 7.66799 14.9395 8.05997C14.9395 8.45249 15.0954 8.82894 15.3729 9.10649C15.6505 9.38404 16.0269 9.53997 16.4195 9.53997C16.812 9.53997 17.1884 9.38404 17.466 9.10649C17.7435 8.82894 17.8995 8.45249 17.8995 8.05997V8.05997Z" stroke="#2D3340" stroke-miterlimit="10"/>
<path d="M16.1534 8.05997C15.7315 7.71608 15.3786 7.29532 15.1134 6.81997C14.745 6.2068 14.4475 5.55372 14.2267 4.87331C14.1 4.49998 14 4.13998 13.92 3.79998C13.5334 2.15998 13.6667 0.986642 14.3334 0.719975C15.1467 0.399975 16.4 1.51998 17.14 3.71998" stroke="#2D3340" stroke-miterlimit="10" stroke-linecap="round"/>
</svg>
