<svg xmlns="http://www.w3.org/2000/svg" viewBox="0 0 96 96"><g id="back"><g opacity="0.4"><path d="M22,49,14.4,53.4a3,3,0,0,1-4.5-2.6l0-21.71a9,9,0,0,1,4.51-7.79L40,6.59a3,3,0,0,1,4.5,2.6V20" fill="none" stroke="#8fb4ff" stroke-linecap="round" stroke-linejoin="round"/><path d="M43.27,6.73l-7-4.05a3,3,0,0,0-3.14-.09L7.52,17.3A9,9,0,0,0,3,25.09L3,46.8a3,3,0,0,0,1.67,2.69l6.93,4" fill="none" stroke="#8fb4ff" stroke-linecap="round" stroke-linejoin="round"/><line x1="18.56" y1="31" x2="37.61" y2="20" fill="none" stroke="#8fb4ff" stroke-linecap="round" stroke-linejoin="round"/><line x1="18.56" y1="39" x2="22.02" y2="37" fill="none" stroke="#8fb4ff" stroke-linecap="round" stroke-linejoin="round"/></g></g><g id="front"><path d="M79.18,84,62.9,93.4a3,3,0,0,1-4.5-2.6l0-21.71A9,9,0,0,1,63,61.3L88.54,46.59A3,3,0,0,1,93,49.19V70.8a9,9,0,0,1-4.5,7.8l-.69.4L79.18,94Z" fill="none" stroke="#8fb4ff" stroke-linecap="round" stroke-linejoin="round"/><path d="M79.18,44V13.2a3,3,0,0,0-4.5-2.6L33.45,34.4A9,9,0,0,0,29,42.2V73.8a3,3,0,0,0,4.5,2.6L35.88,75l10.39,6V69l5.19-3" fill="none" stroke="#8fb4ff" stroke-linecap="round" stroke-linejoin="round"/><polyline points="79.18 94 73.98 91 74.03 86.97" fill="none" stroke="#8fb4ff" stroke-linecap="round" stroke-linejoin="round"/><path d="M91.76,46.73l-7-4a3,3,0,0,0-3.14-.09L56,57.3a9,9,0,0,0-4.52,7.79l0,21.71a3,3,0,0,0,1.67,2.69l6.92,4" fill="none" stroke="#8fb4ff" stroke-linecap="round" stroke-linejoin="round"/><path d="M30.63,76.5l-7.18-4.14A3,3,0,0,1,22,69.8V38.2a9,9,0,0,1,4.5-7.8L67.75,6.6a3,3,0,0,1,2.85-.08l7.05,4.07" fill="none" stroke="#8fb4ff" stroke-linecap="round" stroke-linejoin="round"/><line x1="67.05" y1="71" x2="86.11" y2="60" fill="none" stroke="#8fb4ff" stroke-linecap="round" stroke-linejoin="round"/><line x1="67.05" y1="79" x2="82.64" y2="70" fill="none" stroke="#8fb4ff" stroke-linecap="round" stroke-linejoin="round"/><line x1="41.07" y1="44" x2="68.78" y2="28" fill="none" stroke="#8fb4ff" stroke-linecap="round" stroke-linejoin="round"/><line x1="41.07" y1="52" x2="68.78" y2="36" fill="none" stroke="#8fb4ff" stroke-linecap="round" stroke-linejoin="round"/><line x1="41.07" y1="60" x2="63.36" y2="47.13" fill="none" stroke="#8fb4ff" stroke-linecap="round" stroke-linejoin="round"/></g></svg>