<svg width="24" height="24" viewBox="0 0 24 24" fill="none" xmlns="http://www.w3.org/2000/svg">
<path d="M12.5009 13.51C13.8436 14.5306 14.7963 15.9804 15.2002 17.618C15.6041 19.2555 15.435 20.982 14.7209 22.51V22.51C16.0787 22.0464 17.2573 21.1692 18.0912 20.0017C18.9252 18.8341 19.3727 17.4348 19.3709 16C19.4369 15.038 19.285 14.0736 18.9266 13.1785C18.5682 12.2833 18.0125 11.4806 17.3009 10.83C17.1681 11.2589 16.9033 11.6349 16.5441 11.9043C16.1849 12.1737 15.7498 12.3227 15.3009 12.33C16.6609 7.77 16.0009 4.5 11.7309 1.5C12.1109 8.69 4.63086 9.5 4.63086 15.86C4.63086 19.5 7.57086 21.58 10.2809 22.5C9.82232 21.524 9.58663 20.4583 9.59086 19.38C9.59044 18.2434 9.8529 17.1222 10.3577 16.1039C10.8625 15.0856 11.596 14.1978 12.5009 13.51" stroke="#75A3FF" stroke-linecap="round" stroke-linejoin="round"/>
</svg>
