<svg width="24" height="13" viewBox="0 0 24 13" fill="none" xmlns="http://www.w3.org/2000/svg">
<path d="M23.3327 6.49998C23.3327 6.49998 19.2127 12.1666 11.9993 12.1666C4.78602 12.1666 0.666016 6.49998 0.666016 6.49998C0.666016 6.49998 4.78602 0.833313 11.9993 0.833313C19.2127 0.833313 23.3327 6.49998 23.3327 6.49998Z" stroke="#2D3340" stroke-linecap="round" stroke-linejoin="round"/>
<path d="M12.0007 12.1666C15.1303 12.1666 17.6673 9.62959 17.6673 6.49998C17.6673 3.37037 15.1303 0.833313 12.0007 0.833313C8.87104 0.833313 6.33398 3.37037 6.33398 6.49998C6.33398 9.62959 8.87104 12.1666 12.0007 12.1666Z" stroke="#2D3340" stroke-linecap="round" stroke-linejoin="round"/>
<path d="M11.9998 8.04664C12.854 8.04664 13.5465 7.35418 13.5465 6.49997C13.5465 5.64577 12.854 4.95331 11.9998 4.95331C11.1456 4.95331 10.4531 5.64577 10.4531 6.49997C10.4531 7.35418 11.1456 8.04664 11.9998 8.04664Z" stroke="#2D3340" stroke-linecap="round" stroke-linejoin="round"/>
</svg>
