<svg xmlns="http://www.w3.org/2000/svg" viewBox="0 0 96 96"><g id="back"><g opacity="0.4"><path d="M29.81,89.88c-3.72,2.15-6.76.39-6.76-3.94A15,15,0,0,1,29.81,74.2c3.73-2.15,6.76-.38,6.76,3.94A15,15,0,0,1,29.81,89.88Z" fill="none" stroke="#8fb4ff" stroke-linecap="round" stroke-linejoin="round"/><path d="M11.46,51,4.62,47C3.6,46.49,3,45.26,3,43.48c0-6.89,2.49-15,6.82-22.22S19.92,8.22,26,5.17c5.59-2.83,10.6-2.86,14.25-.56L47,8.55" fill="none" stroke="#8fb4ff" stroke-linecap="round" stroke-linejoin="round"/><path d="M34.86,21.14A10.32,10.32,0,0,1,35.39,24c.3,5.44-2.68,12.37-7.25,16.85-5.36,5.24-8.95,13.26-8.95,20V63.9a3.86,3.86,0,0,0,1.55,3.5l6.93,4" fill="none" stroke="#8fb4ff" stroke-linecap="round" stroke-linejoin="round"/><path d="M30.64,71.47l4,2.27M25,90.29l-5.12-3c-1.22-.71-2-2.23-2-4.39A15,15,0,0,1,24.62,71.2a7.49,7.49,0,0,1,1.53-.68" fill="none" stroke="#8fb4ff" stroke-linecap="round" stroke-linejoin="round"/><path d="M42.33,28.42c0-.16,0-.32,0-.47-.33-6-4.77-8.57-10.1-5.88a21,21,0,0,0-8.1,8.06,22.22,22.22,0,0,0-3.41,11.11,12,12,0,0,1-5.41,9.39c-3,1.72-5.41.31-5.41-3.15,0-6.89,2.49-15,6.82-22.22s10.14-13,16.18-16.09c10.55-5.33,19-.71,20.15,10.75" fill="none" stroke="#8fb4ff" stroke-linecap="round" stroke-linejoin="round"/><path d="M35.18,67.27A10.77,10.77,0,0,1,31.52,71c-3,1.73-5.41.32-5.41-3.14V64.76c0-5.36,2.31-11.57,6-16.53" fill="none" stroke="#8fb4ff" stroke-linecap="round" stroke-linejoin="round"/></g></g><g id="front"><line x1="40.73" y1="23.16" x2="45.17" y2="29.52" fill="none" stroke="#8fb4ff" stroke-linecap="round" stroke-linejoin="round"/><line x1="80.72" y1="50.21" x2="88.42" y2="50.92" fill="none" stroke="#8fb4ff" stroke-linecap="round" stroke-linejoin="round"/><line x1="27.97" y1="45.35" x2="35.65" y2="46.06" fill="none" stroke="#8fb4ff" stroke-linecap="round" stroke-linejoin="round"/><line x1="84.21" y1="33.11" x2="93.09" y2="27.98" fill="none" stroke="#8fb4ff" stroke-linecap="round" stroke-linejoin="round"/><line x1="23.28" y1="68.29" x2="32.16" y2="63.16" fill="none" stroke="#8fb4ff" stroke-linecap="round" stroke-linejoin="round"/><line x1="80.72" y1="20.04" x2="88.42" y2="10.44" fill="none" stroke="#8fb4ff" stroke-linecap="round" stroke-linejoin="round"/><line x1="27.95" y1="85.83" x2="35.65" y2="76.23" fill="none" stroke="#8fb4ff" stroke-linecap="round" stroke-linejoin="round"/><line x1="71.19" y1="14.49" x2="75.64" y2="3" fill="none" stroke="#8fb4ff" stroke-linecap="round" stroke-linejoin="round"/><path d="M65.9,75c.06-3.47.82-10,6.15-18.34a39.39,39.39,0,0,0,6.21-20.15c0-12.85-9-18.08-20.08-11.68S38.1,46.86,38.1,59.71c0,6.11,2.11,11.25,6.22,13,2,.82,6.14,3.48,6.14,11.25h0V90.2c0,2,1.38,2.79,3.09,1.8l9.27-5.35a6.87,6.87,0,0,0,3.09-5.37V75Z" fill="none" stroke="#8fb4ff" stroke-linecap="round" stroke-linejoin="round"/><line x1="58.18" y1="7.66" x2="58.18" y2="17.96" fill="none" stroke="#8fb4ff" stroke-linecap="round" stroke-linejoin="round"/><polyline points="65.91 70.54 49.98 79.73 43.05 75.73" fill="none" stroke="#8fb4ff" stroke-linecap="round" stroke-linejoin="round"/><path d="M62.63,86.76a11.26,11.26,0,0,1-4.45,5.54c-1.9,1.1-3.56.86-4.45-.41" fill="none" stroke="#8fb4ff" stroke-linecap="round" stroke-linejoin="round"/><path d="M51.37,92.21l-6.93-4a2.18,2.18,0,0,1-.91-2V79.93h0c0-7.77-4.2-10.43-6.15-11.25-4.11-1.72-6.21-6.86-6.21-13,0-12.85,9-28.45,20.08-34.86,5.68-3.28,10.81-3.5,14.46-1.22l7,4.07" fill="none" stroke="#8fb4ff" stroke-linecap="round" stroke-linejoin="round"/></g></svg>