<svg xmlns="http://www.w3.org/2000/svg" viewBox="0 0 96 96"><g id="back"><g opacity="0.4"><polyline points="42.53 83.16 35.88 87 2.97 68 2.97 22" fill="none" stroke="#8fb4ff" stroke-linecap="round" stroke-linejoin="round"/><line x1="63.59" y1="71" x2="53.46" y2="76.85" fill="none" stroke="#8fb4ff" stroke-linecap="round" stroke-linejoin="round"/><polyline points="70.52 43.5 70.52 67 67.05 69" fill="none" stroke="#8fb4ff" stroke-linecap="round" stroke-linejoin="round"/><line x1="70.52" y1="21" x2="70.52" y2="34.53" fill="none" stroke="#8fb4ff" stroke-linecap="round" stroke-linejoin="round"/><polygon points="2.97 22 35.88 41 70.52 21 37.61 2 2.97 22" fill="none" stroke="#8fb4ff" stroke-linecap="round" stroke-linejoin="round"/><polyline points="63.59 57 35.88 73 2.97 54" fill="none" stroke="#8fb4ff" stroke-linecap="round" stroke-linejoin="round"/><line x1="70.52" y1="53" x2="67.05" y2="55" fill="none" stroke="#8fb4ff" stroke-linecap="round" stroke-linejoin="round"/><polyline points="3.09 37.93 35.88 57 43.67 52.5" fill="none" stroke="#8fb4ff" stroke-linecap="round" stroke-linejoin="round"/><line x1="35.88" y1="41" x2="35.88" y2="87" fill="none" stroke="#8fb4ff" stroke-linecap="round" stroke-linejoin="round"/><line x1="6.43" y1="28" x2="13.36" y2="32" fill="none" stroke="#8fb4ff" stroke-linecap="round" stroke-linejoin="round"/><line x1="6.43" y1="32" x2="13.36" y2="36" fill="none" stroke="#8fb4ff" stroke-linecap="round" stroke-linejoin="round"/><polygon points="32.41 43 28.95 41 28.95 45 32.41 47 32.41 43" fill="none" stroke="#8fb4ff" stroke-linecap="round" stroke-linejoin="round"/><polygon points="27.21 40 23.75 38 23.75 42 27.21 44 27.21 40" fill="none" stroke="#8fb4ff" stroke-linecap="round" stroke-linejoin="round"/><line x1="6.43" y1="44" x2="13.36" y2="48" fill="none" stroke="#8fb4ff" stroke-linecap="round" stroke-linejoin="round"/><line x1="6.43" y1="48" x2="13.36" y2="52" fill="none" stroke="#8fb4ff" stroke-linecap="round" stroke-linejoin="round"/><polygon points="32.41 59 28.95 57 28.95 61 32.41 63 32.41 59" fill="none" stroke="#8fb4ff" stroke-linecap="round" stroke-linejoin="round"/><polygon points="27.21 56 23.75 54 23.75 58 27.21 60 27.21 56" fill="none" stroke="#8fb4ff" stroke-linecap="round" stroke-linejoin="round"/><line x1="6.43" y1="60" x2="13.36" y2="64" fill="none" stroke="#8fb4ff" stroke-linecap="round" stroke-linejoin="round"/><line x1="6.43" y1="64" x2="13.36" y2="68" fill="none" stroke="#8fb4ff" stroke-linecap="round" stroke-linejoin="round"/><polygon points="32.41 75 28.95 73 28.95 77 32.41 79 32.41 75" fill="none" stroke="#8fb4ff" stroke-linecap="round" stroke-linejoin="round"/><polygon points="27.21 72 23.75 70 23.75 74 27.21 76 27.21 72" fill="none" stroke="#8fb4ff" stroke-linecap="round" stroke-linejoin="round"/></g></g><g id="front"><polyline points="51.42 74.03 46.23 53.02 41.03 80.03" fill="none" stroke="#8fb4ff" stroke-linecap="round" stroke-linejoin="round"/><ellipse cx="46.23" cy="77.03" rx="7" ry="4.45" fill="none" stroke="#8fb4ff" stroke-linecap="round" stroke-linejoin="round"/><path d="M53.23,77a7,7,0,0,1-14,0" fill="none" stroke="#8fb4ff" stroke-linecap="round" stroke-linejoin="round"/><polyline points="91.3 51 86.11 30 80.91 57" fill="none" stroke="#8fb4ff" stroke-linecap="round" stroke-linejoin="round"/><ellipse cx="86.12" cy="54" rx="7" ry="4.45" fill="none" stroke="#8fb4ff" stroke-linecap="round" stroke-linejoin="round"/><path d="M93.12,54a7,7,0,0,1-14,0" fill="none" stroke="#8fb4ff" stroke-linecap="round" stroke-linejoin="round"/><line x1="63.59" y1="79" x2="54.93" y2="84" fill="none" stroke="#8fb4ff" stroke-linecap="round" stroke-linejoin="round"/><polyline points="75.71 84 77.44 87 65.32 94 53.2 87 54.93 84 65.32 90 75.71 84 67.05 79" fill="none" stroke="#8fb4ff" stroke-linecap="round" stroke-linejoin="round"/><line x1="65.32" y1="94" x2="65.32" y2="90" fill="none" stroke="#8fb4ff" stroke-linecap="round" stroke-linejoin="round"/><path d="M67.05,47V84c0,.55-.77,1-1.73,1s-1.73-.45-1.73-1V47.46" fill="none" stroke="#8fb4ff" stroke-linecap="round" stroke-linejoin="round"/><ellipse cx="67.04" cy="41" rx="7.35" ry="4.24" transform="translate(-1.85 78.8) rotate(-60.2)" fill="none" stroke="#8fb4ff" stroke-linecap="round" stroke-linejoin="round"/><ellipse cx="44.54" cy="52" rx="1" ry="1.73" transform="translate(-19.95 29.01) rotate(-29.8)" fill="none" stroke="#8fb4ff" stroke-linecap="round" stroke-linejoin="round"/><path d="M45.4,53.5,61,44.5a.86.86,0,0,0,.36-.79,2.7,2.7,0,0,0-1.23-2.13.85.85,0,0,0-.86-.08l-15.59,9" fill="none" stroke="#8fb4ff" stroke-linecap="round" stroke-linejoin="round"/><line x1="59.71" y1="45.24" x2="63.17" y2="47.24" fill="none" stroke="#8fb4ff" stroke-linecap="round" stroke-linejoin="round"/><path d="M58.39,42a11.47,11.47,0,0,1,5.18-9,3.69,3.69,0,0,1,3.62-.39l3.61,2.09" fill="none" stroke="#8fb4ff" stroke-linecap="round" stroke-linejoin="round"/><path d="M72.22,38l15.62-9a.86.86,0,0,0,.35-.79A2.72,2.72,0,0,0,87,26.08.87.87,0,0,0,86.1,26L70.93,34.76" fill="none" stroke="#8fb4ff" stroke-linecap="round" stroke-linejoin="round"/></g></svg>