<svg id="efS7aNk1vjd1" xmlns="http://www.w3.org/2000/svg" xmlns:xlink="http://www.w3.org/1999/xlink" viewBox="0 0 16 16" shape-rendering="geometricPrecision" text-rendering="geometricPrecision"><style><![CDATA[#efS7aNk1vjd1{pointer-events: all}#efS7aNk1vjd1 * {animation-play-state: paused !important}#efS7aNk1vjd1:hover * {animation-play-state: running !important}#efS7aNk1vjd2_to {animation: efS7aNk1vjd2_to__to 2500ms linear infinite normal forwards}@keyframes efS7aNk1vjd2_to__to { 0% {transform: translate(8.000759px,8.000759px)} 0.4% {transform: translate(8.000759px,8.000759px);animation-timing-function: cubic-bezier(0.42,0,0.58,1)} 20% {transform: translate(11.000759px,5.000759px);animation-timing-function: cubic-bezier(0.42,0,0.58,1)} 36% {transform: translate(9.000759px,7.000759px);animation-timing-function: cubic-bezier(0.42,0,0.58,1)} 52% {transform: translate(11.000759px,5.000759px);animation-timing-function: cubic-bezier(0.42,0,0.58,1)} 68% {transform: translate(9.000759px,7.000759px);animation-timing-function: cubic-bezier(0.42,0,0.58,1)} 84% {transform: translate(11.000759px,5.000759px);animation-timing-function: cubic-bezier(0.42,0,0.58,1)} 100% {transform: translate(8.07393px,7.927588px)}}]]></style><g id="efS7aNk1vjd2_to" transform="translate(8.000759,8.000759)"><path d="M14.5,1h-6c-.276142,0-.5.223858-.5.5s.223858.5.5.5h4.79L7.15,8.15c-.096677.090733-.151519.217414-.151519.35s.054842.259267.151519.35c.090733.096677.217414.151519.35.151519s.259267-.054842.35-.151519L14,2.71v4.79c0,.276142.223858.5.5.5s.5-.223858.5-.5v-6c0-.276142-.223858-.5-.5-.5Z" transform="translate(-10.99924,-5.000759)" fill="#2d3340"/></g></svg>