<svg xmlns="http://www.w3.org/2000/svg" shape-rendering="geometricPrecision" style="pointer-events:all" text-rendering="geometricPrecision" viewBox="0 0 16 16">
  <path fill="#2d3340" d="M11.5 4h-4c-.276142 0-.5.223858-.5.5s.223858.5.5.5h2.79L7.15 8.15c-.096677.090733-.151519.217414-.151519.35s.054842.259267.151519.35c.090733.096677.217414.151519.35.151519s.259267-.054842.35-.151519L11 5.71V8.5c0 .276142.223858.5.5.5s.5-.223858.5-.5v-4c0-.276142-.223858-.5-.5-.5Z" style="animation:eAqidWTh3Ks10_to__to 2500ms linear infinite normal forwards"/>
  <path fill="#2d3340" d="M11.5 13h-8c-.276142 0-.5-.223858-.5-.5v-8c0-.276142.223858-.5.5-.5h1c.276142 0 .5.223858.5.5s-.223858.5-.5.5H4v7h7v-.5c0-.276142.223858-.5.5-.5s.5.223858.5.5v1c0 .276142-.223858.5-.5.5Z"/>
</svg>
