<svg xmlns="http://www.w3.org/2000/svg" viewBox="0 0 96 96"><g id="back"><g opacity="0.4"><path d="M58,8.92,50.89,4.83a1,1,0,0,0-.93,0L4.47,31.13A3,3,0,0,0,3,33.73V80.27a1,1,0,0,0,.44.83l7,4.06" fill="none" stroke="#8fb4ff" stroke-linecap="round" stroke-linejoin="round"/><line x1="58.39" y1="16" x2="9.89" y2="44" fill="none" stroke="#8fb4ff" stroke-linecap="round" stroke-linejoin="round"/><ellipse cx="53.19" cy="15" rx="2.24" ry="1.27" transform="matrix(0.39, -0.92, 0.92, 0.39, 18.57, 58.07)" fill="none" stroke="#8fb4ff" stroke-linecap="round" stroke-linejoin="round"/><ellipse cx="48" cy="18" rx="2.24" ry="1.27" transform="matrix(0.39, -0.92, 0.92, 0.39, 12.64, 55.12)" fill="none" stroke="#8fb4ff" stroke-linecap="round" stroke-linejoin="round"/><ellipse cx="42.81" cy="21.01" rx="2.24" ry="1.27" transform="matrix(0.39, -0.92, 0.92, 0.39, 6.71, 52.17)" fill="none" stroke="#8fb4ff" stroke-linecap="round" stroke-linejoin="round"/><path d="M37.62,70,11.39,85.13a1,1,0,0,1-1.5-.86V37.73a3,3,0,0,1,1.5-2.6L56.89,8.87a1,1,0,0,1,1.5.86V28" fill="none" stroke="#8fb4ff" stroke-linecap="round" stroke-linejoin="round"/><polyline points="16.82 48 16.82 76 37.61 64" fill="none" stroke="#8fb4ff" stroke-linecap="round" stroke-linejoin="round"/><polygon points="20.29 70 20.29 54 23.75 52 23.75 68 20.29 70" fill="none" stroke="#8fb4ff" stroke-linecap="round" stroke-linejoin="round"/><polygon points="27.21 48 27.21 66 30.68 64 30.68 46 27.21 48" fill="none" stroke="#8fb4ff" stroke-linecap="round" stroke-linejoin="round"/><polygon points="34.14 62 37.61 60 37.61 48 34.14 50 34.14 62" fill="none" stroke="#8fb4ff" stroke-linecap="round" stroke-linejoin="round"/></g></g><g id="front"><path d="M92.61,16.92l-7.08-4.09a1,1,0,0,0-.93,0L39.11,39.13a3,3,0,0,0-1.5,2.6V88.27a1,1,0,0,0,.44.83l7,4.06" fill="none" stroke="#8fb4ff" stroke-linecap="round" stroke-linejoin="round"/><line x1="93.03" y1="24" x2="44.54" y2="52" fill="none" stroke="#8fb4ff" stroke-linecap="round" stroke-linejoin="round"/><ellipse cx="87.84" cy="23" rx="2.24" ry="1.27" transform="matrix(0.39, -0.92, 0.92, 0.39, 32.28, 94.82)" fill="none" stroke="#8fb4ff" stroke-linecap="round" stroke-linejoin="round"/><ellipse cx="82.64" cy="26" rx="2.24" ry="1.27" transform="matrix(0.39, -0.92, 0.92, 0.39, 26.36, 91.86)" fill="none" stroke="#8fb4ff" stroke-linecap="round" stroke-linejoin="round"/><ellipse cx="77.45" cy="29.01" rx="2.24" ry="1.27" transform="matrix(0.39, -0.92, 0.92, 0.39, 20.43, 88.91)" fill="none" stroke="#8fb4ff" stroke-linecap="round" stroke-linejoin="round"/><line x1="63.69" y1="62.94" x2="67.05" y2="53" fill="none" stroke="#8fb4ff" stroke-linecap="round" stroke-linejoin="round"/><line x1="53.2" y1="57" x2="72.25" y2="42" fill="none" stroke="#8fb4ff" stroke-linecap="round" stroke-linejoin="round"/><line x1="53.2" y1="57" x2="67.05" y2="53" fill="none" stroke="#8fb4ff" stroke-linecap="round" stroke-linejoin="round"/><polyline points="63.7 62.94 63.59 73 49.73 85" fill="none" stroke="#8fb4ff" stroke-linecap="round" stroke-linejoin="round"/><line x1="63.69" y1="62.94" x2="73.98" y2="71" fill="none" stroke="#8fb4ff" stroke-linecap="round" stroke-linejoin="round"/><line x1="67.05" y1="53" x2="89.57" y2="62" fill="none" stroke="#8fb4ff" stroke-linecap="round" stroke-linejoin="round"/><line x1="72.25" y1="42" x2="67.05" y2="53" fill="none" stroke="#8fb4ff" stroke-linecap="round" stroke-linejoin="round"/><polyline points="63.7 62.94 49.73 85 53.2 57 63.7 62.94" fill="none" stroke="#8fb4ff" stroke-linecap="round" stroke-linejoin="round"/><polyline points="72.31 41.96 87.84 39 73.98 71" fill="none" stroke="#8fb4ff" stroke-linecap="round" stroke-linejoin="round"/><polyline points="63.59 73 73.98 71 89.57 62" fill="none" stroke="#8fb4ff" stroke-linecap="round" stroke-linejoin="round"/><line x1="67.05" y1="53" x2="73.98" y2="71" fill="none" stroke="#8fb4ff" stroke-linecap="round" stroke-linejoin="round"/><line x1="72.25" y1="42" x2="89.57" y2="62" fill="none" stroke="#8fb4ff" stroke-linecap="round" stroke-linejoin="round"/><line x1="67.05" y1="53" x2="87.84" y2="39" fill="none" stroke="#8fb4ff" stroke-linecap="round" stroke-linejoin="round"/><path d="M44.54,92.27V45.73a3,3,0,0,1,1.5-2.6L91.53,16.87a1,1,0,0,1,1.5.86V64.28a3,3,0,0,1-1.48,2.59L46,93.13A1,1,0,0,1,44.54,92.27Z" fill="none" stroke="#8fb4ff" stroke-linecap="round" stroke-linejoin="round"/></g></svg>