<svg width="22" height="23" viewBox="0 0 22 23" fill="none" xmlns="http://www.w3.org/2000/svg">
<rect y="0.5" width="22" height="22" rx="11" fill="#8DD9D9"/>
<path d="M11.0048 17.66C9.67142 17.66 8.64742 17.292 7.93275 16.556C7.22875 15.8093 6.87675 14.6787 6.87675 13.164V6.668C6.87675 6.56133 6.90875 6.476 6.97275 6.412C7.03675 6.33733 7.12208 6.3 7.22875 6.3H7.51675C7.63408 6.3 7.72475 6.332 7.78875 6.396C7.85275 6.46 7.88475 6.55067 7.88475 6.668V13.212C7.88475 14.3853 8.15675 15.26 8.70075 15.836C9.24475 16.412 10.0128 16.7 11.0048 16.7C11.9861 16.7 12.7488 16.412 13.2928 15.836C13.8368 15.26 14.1088 14.3853 14.1088 13.212V6.668C14.1088 6.55067 14.1408 6.46 14.2048 6.396C14.2794 6.332 14.3701 6.3 14.4768 6.3H14.7648C14.8714 6.3 14.9568 6.33733 15.0208 6.412C15.0848 6.476 15.1168 6.56133 15.1168 6.668V13.164C15.1168 14.6893 14.7648 15.82 14.0608 16.556C13.3568 17.292 12.3381 17.66 11.0048 17.66Z" fill="#2D3340"/>
</svg>
