<svg width="22" height="25" viewBox="0 0 22 25" fill="none" xmlns="http://www.w3.org/2000/svg">
<path d="M5.2793 20.86C5.2793 21.5672 5.56025 22.2455 6.06035 22.7456C6.56044 23.2457 7.23872 23.5267 7.94596 23.5267H16.646C17.0618 23.5342 17.4676 23.3985 17.7953 23.1424C18.123 22.8863 18.3528 22.5253 18.446 22.12C18.4984 21.864 18.4932 21.5995 18.4307 21.3458C18.3683 21.0921 18.2501 20.8555 18.0847 20.6531C17.9194 20.4507 17.7111 20.2877 17.4749 20.1759C17.2387 20.0641 16.9806 20.0063 16.7193 20.0067H18.406C18.8218 20.0142 19.2276 19.8785 19.5553 19.6224C19.883 19.3663 20.1128 19.0053 20.206 18.6C20.2584 18.344 20.2532 18.0795 20.1907 17.8258C20.1283 17.5721 20.0101 17.3355 19.8447 17.1331C19.6794 16.9307 19.4711 16.7677 19.2349 16.6559C18.9987 16.5441 18.7406 16.4863 18.4793 16.4867H19.286C19.7018 16.4942 20.1076 16.3585 20.4353 16.1024C20.763 15.8463 20.9928 15.4853 21.086 15.08C21.1384 14.824 21.1332 14.5595 21.0707 14.3058C21.0083 14.0521 20.8901 13.8155 20.7247 13.6131C20.5594 13.4107 20.3511 13.2477 20.1149 13.1359C19.8787 13.0241 19.6206 12.9663 19.3593 12.9667V12.9667C19.6206 12.967 19.8787 12.9092 20.1149 12.7974C20.3511 12.6856 20.5594 12.5226 20.7247 12.3202C20.8901 12.1179 21.0083 11.8812 21.0707 11.6275C21.1332 11.3738 21.1384 11.1093 21.086 10.8533C20.9928 10.448 20.763 10.087 20.4353 9.83091C20.1076 9.5748 19.7018 9.43914 19.286 9.44666H12.7593C12.6431 9.44494 12.5322 9.39803 12.4501 9.31588C12.3679 9.23374 12.321 9.12282 12.3193 9.00666V4.13999C12.3193 3.43275 12.0383 2.75447 11.5382 2.25438C11.0382 1.75428 10.3599 1.47333 9.65263 1.47333H8.7993V4.40666C8.79619 5.38062 8.52643 6.33514 8.0193 7.16666L5.2793 11.62V20.86Z" stroke="#2D3340" stroke-linecap="round" stroke-linejoin="round"/>
<path d="M3.28086 10.3H2.88086C1.77629 10.3 0.880859 11.1954 0.880859 12.3V21.5C0.880859 22.6046 1.77629 23.5 2.88086 23.5H3.28086C4.38543 23.5 5.28086 22.6046 5.28086 21.5V12.3C5.28086 11.1954 4.38543 10.3 3.28086 10.3Z" stroke="#2D3340" stroke-linecap="round" stroke-linejoin="round"/>
</svg>
