
<svg id="eWDRH4dIksG1" xmlns="http://www.w3.org/2000/svg" xmlns:xlink="http://www.w3.org/1999/xlink" viewBox="0 0 64 64" shape-rendering="geometricPrecision" text-rendering="geometricPrecision">
<style>
<![CDATA[#eWDRH4dIksG37_to {animation: eWDRH4dIksG37_to__to 6000ms linear infinite normal forwards}@keyframes eWDRH4dIksG37_to__to { 0% {transform: translate(13.93px,43.299999px);animation-timing-function: cubic-bezier(0,0,0.58,1)} 8.333333% {transform: translate(8.93px,43.299999px);animation-timing-function: cubic-bezier(0,0,0.58,1)} 18.333333% {transform: translate(8.999905px,43.299999px);animation-timing-function: cubic-bezier(0,0,0.58,1)} 26.666667% {transform: translate(19.999905px,43.299999px);animation-timing-function: cubic-bezier(0,0,0.58,1)} 38.333333% {transform: translate(19.999905px,43.299999px);animation-timing-function: cubic-bezier(0,0,0.58,1)} 55% {transform: translate(13.93px,43.299999px)} 100% {transform: translate(13.93px,43.299999px)}} #eWDRH4dIksG37_ts {animation: eWDRH4dIksG37_ts__ts 6000ms linear infinite normal forwards}@keyframes eWDRH4dIksG37_ts__ts { 0% {transform: scale(1,1)} 66.666667% {transform: scale(1,1)} 68.333333% {transform: scale(1,0.1)} 70% {transform: scale(1,1)} 71.666667% {transform: scale(1,0.1)} 73.333333% {transform: scale(1,1)} 100% {transform: scale(1,1)}} #eWDRH4dIksG38_to {animation: eWDRH4dIksG38_to__to 6000ms linear infinite normal forwards}@keyframes eWDRH4dIksG38_to__to { 0% {transform: translate(50.07px,43.299999px);animation-timing-function: cubic-bezier(0,0,0.58,1)} 8.333333% {transform: translate(45px,43.299999px);animation-timing-function: cubic-bezier(0,0,0.58,1)} 18.333333% {transform: translate(45px,43.299999px);animation-timing-function: cubic-bezier(0,0,0.58,1)} 26.666667% {transform: translate(56.499905px,43.299999px);animation-timing-function: cubic-bezier(0,0,0.58,1)} 38.333333% {transform: translate(56.499905px,43.299999px);animation-timing-function: cubic-bezier(0,0,0.58,1)} 55% {transform: translate(50.07px,43.299999px)} 100% {transform: translate(50.07px,43.299999px)}} #eWDRH4dIksG38_ts {animation: eWDRH4dIksG38_ts__ts 6000ms linear infinite normal forwards}@keyframes eWDRH4dIksG38_ts__ts { 0% {transform: scale(1,1)} 66.666667% {transform: scale(1,1)} 68.333333% {transform: scale(1,0.1)} 70% {transform: scale(1,1)} 71.666667% {transform: scale(1,0.1)} 73.333333% {transform: scale(1,1)} 100% {transform: scale(1,1)}}]]>
</style>
<g id="eWDRH4dIksG2" transform="matrix(1 0 0 1 0.000095 0.018499)">
<circle id="eWDRH4dIksG3" r="5.65" transform="matrix(1 0 0 1 32 43.3)" fill="none" stroke="rgb(112,160,255)" stroke-width="1" stroke-miterlimit="10"/>
<path id="eWDRH4dIksG4" d="M39.91,11.67C39.905211,10.056931,41.04093,8.665274,42.622212,8.346585C44.203493,8.027896,45.789603,8.871,46.41,10.36L49,15.85C47.930396,15.332724,46.758116,15.062724,45.57,15.06C43.438338,15.046812,41.395119,15.911111,39.92,17.45Z" fill="none" stroke="rgb(112,160,255)" stroke-width="1" stroke-miterlimit="10"/>
<path id="eWDRH4dIksG5" d="M24.09,11.67L24.09,17.45C22.614881,15.911111,20.571662,15.046812,18.44,15.06C17.251884,15.062724,16.079604,15.332724,15.01,15.85L17.59,10.36C18.210397,8.871,19.796507,8.027896,21.377788,8.346585C22.95907,8.665274,24.094789,10.056931,24.09,11.67Z" fill="none" stroke="rgb(112,160,255)" stroke-width="1" stroke-miterlimit="10"/>
<path id="eWDRH4dIksG6" d="M37.65,23L37.65,43.3C37.65,40.179591,35.120409,37.65,32,37.65C28.879591,37.65,26.35,40.179591,26.35,43.3L26.35,23C26.35,19.879591,28.879591,17.35,32,17.35C35.120409,17.35,37.65,19.879591,37.65,23Z" fill="none" stroke="rgb(112,160,255)" stroke-width="1" stroke-miterlimit="10"/>
<path id="eWDRH4dIksG7" d="M50.07,30.87C46.774278,30.869999,43.613686,32.179904,41.284196,34.511269C38.954707,36.842634,37.647346,40.004279,37.65,43.3L37.65,23C37.671923,18.642165,41.202141,15.11641,45.56,15.1C48.627071,15.109529,51.414379,16.884686,52.72,19.66L52.83,19.93L61.33,38C59.279535,33.638553,54.889388,30.858646,50.07,30.87Z" fill="none" stroke="rgb(112,160,255)" stroke-width="1" stroke-miterlimit="10"/>
<path id="eWDRH4dIksG8" d="M26.35,43.3C26.356541,37.475926,22.318353,32.428206,16.634891,31.156147C10.951429,29.884089,5.146775,32.728808,2.67,38L11.17,19.86L11.28,19.59C12.585621,16.814686,15.372929,15.039529,18.44,15.03C20.545824,15.037941,22.562242,15.882101,24.045658,17.376769C25.529074,18.871437,26.357972,20.894177,26.35,23Z" fill="none" stroke="rgb(112,160,255)" stroke-width="1" stroke-miterlimit="10"/>
<path id="eWDRH4dIksG9" d="M40.07,43.3C40.07,37.777153,44.547153,33.3,50.07,33.3" fill="rgb(255,255,255)" stroke="rgb(112,160,255)" stroke-width="1" stroke-linecap="round" stroke-linejoin="round"/>
<path id="eWDRH4dIksG10" d="M61.33,38C62.101006,39.660486,62.500298,41.469245,62.5,43.3C62.480945,49.631027,57.70283,54.934466,51.40807,55.611416C45.113309,56.288367,39.316808,52.122143,37.952056,45.939933C36.587304,39.757723,40.091147,33.538404,46.085888,31.502389C52.080629,29.466375,58.647396,32.265376,61.33,38Z" fill="none" stroke="rgb(112,160,255)" stroke-width="1" stroke-linecap="round" stroke-linejoin="round"/>
<path id="eWDRH4dIksG11" d="M26.35,43.3C26.356541,37.475926,22.318353,32.428206,16.634891,31.156147C10.951429,29.884089,5.146775,32.728808,2.67,38C1.889573,39.657287,1.489809,41.468181,1.5,43.3C1.690801,50.024906,7.197388,55.377473,13.925,55.377473C20.652612,55.377473,26.159199,50.024906,26.35,43.3Z" fill="rgb(255,255,255)" stroke="rgb(112,160,255)" stroke-width="1" stroke-linecap="round" stroke-linejoin="round"/>
<path id="eWDRH4dIksG12" d="M13.93,33.3C10.047981,33.298689,6.515976,35.544202,4.87,39.06C4.241877,40.384687,3.920574,41.83397,3.93,43.3" fill="none" stroke="rgb(112,160,255)" stroke-width="1" stroke-linecap="round" stroke-linejoin="round"/>
<circle id="eWDRH4dIksG13" r="5.65" transform="matrix(1 0 0 1 32 43.3)" fill="none" stroke="rgb(112,160,255)" stroke-width="1" stroke-linecap="round" stroke-linejoin="round"/>
<path id="eWDRH4dIksG14" d="M37.65,23C37.65,19.879591,35.120409,17.35,32,17.35C28.879591,17.35,26.35,19.879591,26.35,23" fill="none" stroke="rgb(112,160,255)" stroke-width="1" stroke-linecap="round" stroke-linejoin="round"/>
<path id="eWDRH4dIksG15" d="M61.33,38L52.83,19.86L52.72,19.59C51.414379,16.814686,48.627071,15.039529,45.56,15.03C43.454176,15.037941,41.437758,15.882101,39.954342,17.376769C38.470926,18.871437,37.642028,20.894177,37.65,23L37.65,43.3" fill="none" stroke="rgb(112,160,255)" stroke-width="1" stroke-linecap="round" stroke-linejoin="round"/>
<path id="eWDRH4dIksG16" d="M2.67,38L11.17,19.86L11.28,19.59C12.585621,16.814686,15.372929,15.039529,18.44,15.03C20.545824,15.037941,22.562242,15.882101,24.045658,17.376769C25.529074,18.871437,26.357972,20.894177,26.35,23L26.35,43.3" fill="none" stroke="rgb(112,160,255)" stroke-width="1" stroke-linecap="round" stroke-linejoin="round"/>
<path id="eWDRH4dIksG17" d="M39.91,17.45L39.91,11.67C39.905211,10.056931,41.04093,8.665274,42.622212,8.346585C44.203493,8.027896,45.789603,8.871,46.41,10.36L49,15.85" fill="none" stroke="rgb(112,160,255)" stroke-width="1" stroke-linecap="round" stroke-linejoin="round"/>
<path id="eWDRH4dIksG18" d="M24.09,17.45L24.09,11.67C24.094789,10.056931,22.95907,8.665274,21.377788,8.346585C19.796507,8.027896,18.210397,8.871,17.59,10.36L15,15.85" fill="none" stroke="rgb(112,160,255)" stroke-width="1" stroke-linecap="round" stroke-linejoin="round"/>
<circle id="eWDRH4dIksG19" r="4" transform="matrix(1 0 0 1 13.93 43.3)" fill="rgb(55,70,76)" stroke="none" stroke-width="1"/>
</g>
<g id="eWDRH4dIksG20" transform="matrix(1 0 0 1 0.000095 0.018499)">
<circle id="eWDRH4dIksG21" r="5.65" transform="matrix(1 0 0 1 31.999905 43.3)" fill="none" stroke="rgb(112,160,255)" stroke-width="1" stroke-miterlimit="10"/>
<path id="eWDRH4dIksG22" d="M39.91,11.67C39.905211,10.056931,41.04093,8.665274,42.622212,8.346585C44.203493,8.027896,45.789603,8.871,46.41,10.36L49,15.85C47.930396,15.332724,46.758116,15.062724,45.57,15.06C43.438338,15.046812,41.395119,15.911111,39.92,17.45Z" transform="matrix(1 0 0 1 -0.000095 0)" fill="none" stroke="rgb(112,160,255)" stroke-width="1" stroke-miterlimit="10"/>
<path id="eWDRH4dIksG23" d="M24.09,11.67L24.09,17.45C22.614881,15.911111,20.571662,15.046812,18.44,15.06C17.251884,15.062724,16.079604,15.332724,15.01,15.85L17.59,10.36C18.210397,8.871,19.796507,8.027896,21.377788,8.346585C22.95907,8.665274,24.094789,10.056931,24.09,11.67Z" transform="matrix(1 0 0 1 -0.000095 0)" fill="none" stroke="rgb(112,160,255)" stroke-width="1" stroke-miterlimit="10"/>
<path id="eWDRH4dIksG24" d="M37.65,23L37.65,43.3C37.65,40.179591,35.120409,37.65,32,37.65C28.879591,37.65,26.35,40.179591,26.35,43.3L26.35,23C26.35,19.879591,28.879591,17.35,32,17.35C35.120409,17.35,37.65,19.879591,37.65,23Z" transform="matrix(1 0 0 1 -0.000095 0)" fill="none" stroke="rgb(112,160,255)" stroke-width="1" stroke-miterlimit="10"/>
<path id="eWDRH4dIksG25" d="M50.07,30.87C46.774278,30.869999,43.613686,32.179904,41.284196,34.511269C38.954707,36.842634,37.647346,40.004279,37.65,43.3L37.65,23C37.671923,18.642165,41.202141,15.11641,45.56,15.1C48.627071,15.109529,51.414379,16.884686,52.72,19.66L52.83,19.93L61.33,38C59.279535,33.638553,54.889388,30.858646,50.07,30.87Z" transform="matrix(1 0 0 1 -0.000095 0)" fill="none" stroke="rgb(112,160,255)" stroke-width="1" stroke-miterlimit="10"/>
<path id="eWDRH4dIksG26" d="M26.35,43.3C26.356541,37.475926,22.318353,32.428206,16.634891,31.156147C10.951429,29.884089,5.146775,32.728808,2.67,38L11.17,19.86L11.28,19.59C12.585621,16.814686,15.372929,15.039529,18.44,15.03C20.545824,15.037941,22.562242,15.882101,24.045658,17.376769C25.529074,18.871437,26.357972,20.894177,26.35,23Z" transform="matrix(1 0 0 1 -0.000095 0)" fill="none" stroke="rgb(112,160,255)" stroke-width="1" stroke-miterlimit="10"/>
<path id="eWDRH4dIksG27" d="M40.07,43.3C40.07,37.777153,44.547153,33.3,50.07,33.3" fill="none" stroke="rgb(112,160,255)" stroke-width="1" stroke-linecap="round" stroke-linejoin="round"/>
<path id="eWDRH4dIksG28" d="M61.33,38C62.101006,39.660486,62.500298,41.469245,62.5,43.3C62.480945,49.631027,57.70283,54.934466,51.40807,55.611416C45.113309,56.288367,39.316808,52.122143,37.952056,45.939933C36.587304,39.757723,40.091147,33.538404,46.085888,31.502389C52.080629,29.466375,58.647396,32.265376,61.33,38Z" fill="rgb(255,255,255)" stroke="rgb(112,160,255)" stroke-width="2" stroke-linecap="round" stroke-linejoin="round"/>
<path id="eWDRH4dIksG29" d="M26.35,43.3C26.356541,37.475926,22.318353,32.428206,16.634891,31.156147C10.951429,29.884089,5.146775,32.728808,2.67,38C1.889573,39.657287,1.489809,41.468181,1.5,43.3C1.690801,50.024906,7.197388,55.377473,13.925,55.377473C20.652612,55.377473,26.159199,50.024906,26.35,43.3Z" fill="rgb(255,255,255)" stroke="rgb(112,160,255)" stroke-width="2" stroke-linecap="round" stroke-linejoin="round"/>
<path id="eWDRH4dIksG30" d="M13.93,33.3C10.047981,33.298689,6.515976,35.544202,4.87,39.06C4.241877,40.384687,3.920574,41.83397,3.93,43.3" fill="none" stroke="rgb(112,160,255)" stroke-width="2" stroke-linecap="round" stroke-linejoin="round"/>
<circle id="eWDRH4dIksG31" r="5.65" transform="matrix(1 0 0 1 32 43.3)" fill="none" stroke="rgb(112,160,255)" stroke-width="2" stroke-linecap="round" stroke-linejoin="round"/>
<path id="eWDRH4dIksG32" d="M37.65,23C37.65,19.879591,35.120409,17.35,32,17.35C28.879591,17.35,26.35,19.879591,26.35,23" fill="none" stroke="rgb(112,160,255)" stroke-width="2" stroke-linecap="round" stroke-linejoin="round"/>
<path id="eWDRH4dIksG33" d="M61.33,38L52.83,19.86L52.72,19.59C51.414379,16.814686,48.627071,15.039529,45.56,15.03C43.454176,15.037941,41.437758,15.882101,39.954342,17.376769C38.470926,18.871437,37.642028,20.894177,37.65,23L37.65,43.3" fill="none" stroke="rgb(112,160,255)" stroke-width="2" stroke-linecap="round" stroke-linejoin="round"/>
<path id="eWDRH4dIksG34" d="M2.67,38L11.17,19.86L11.28,19.59C12.585621,16.814686,15.372929,15.039529,18.44,15.03C20.545824,15.037941,22.562242,15.882101,24.045658,17.376769C25.529074,18.871437,26.357972,20.894177,26.35,23L26.35,43.3" fill="none" stroke="rgb(112,160,255)" stroke-width="2" stroke-linecap="round" stroke-linejoin="round"/>
<path id="eWDRH4dIksG35" d="M39.91,17.45L39.91,11.67C39.905211,10.056931,41.04093,8.665274,42.622212,8.346585C44.203493,8.027896,45.789603,8.871,46.41,10.36L49,15.85" fill="none" stroke="rgb(112,160,255)" stroke-width="2" stroke-linecap="round" stroke-linejoin="round"/>
<path id="eWDRH4dIksG36" d="M24.09,17.45L24.09,11.67C24.094789,10.056931,22.95907,8.665274,21.377788,8.346585C19.796507,8.027896,18.210397,8.871,17.59,10.36L15,15.85" fill="none" stroke="rgb(112,160,255)" stroke-width="2" stroke-linecap="round" stroke-linejoin="round"/>
<g id="eWDRH4dIksG37_to" transform="translate(13.93,43.299999)">
<g id="eWDRH4dIksG37_ts" transform="scale(1,1)">
<circle id="eWDRH4dIksG37" r="4" transform="translate(0,0.000001)" fill="rgb(55,70,76)" stroke="none" stroke-width="1"/>
</g>
</g>
<g id="eWDRH4dIksG38_to" transform="translate(50.07,43.299999)">
<g id="eWDRH4dIksG38_ts" transform="scale(1,1)">
<circle id="eWDRH4dIksG38" r="4" transform="translate(0,0.000001)" fill="rgb(55,70,76)" stroke="none" stroke-width="1"/>
</g>
</g>
</g>
</svg>
