<svg width="96" height="96" viewBox="0 0 96 96" fill="none" xmlns="http://www.w3.org/2000/svg">
<g opacity="0.4">
<path d="M20.2899 54L13.4099 58C12.8801 58.3059 12.2794 58.4676 11.6676 58.469C11.0559 58.4703 10.4544 58.3113 9.92329 58.0078C9.39213 57.7043 8.9498 57.2669 8.6404 56.7391C8.331 56.2114 8.16533 55.6117 8.15991 55V29C8.17076 27.7818 8.49934 26.5875 9.11318 25.5352C9.72702 24.4829 10.6049 23.6091 11.6599 23L40.9999 5.99998C41.5292 5.69087 42.1306 5.52661 42.7435 5.52372C43.3564 5.52083 43.9593 5.67941 44.4915 5.98351C45.0236 6.28761 45.4663 6.72651 45.775 7.25603C46.0837 7.78556 46.2475 8.38705 46.2499 8.99998V15" stroke="#70A0FF" stroke-linecap="round" stroke-linejoin="round"/>
<path d="M9.89 58L4.72 55C4.19671 54.6932 3.7627 54.255 3.46099 53.7287C3.15929 53.2025 3.00037 52.6065 3 52V26C3.00779 24.7847 3.33183 23.5924 3.94026 22.5403C4.54869 21.4883 5.42053 20.6128 6.47 20L35.86 2.99996C36.393 2.69568 36.9962 2.53564 37.61 2.53564C38.2238 2.53564 38.827 2.69568 39.36 2.99996L44.54 5.99996" stroke="#70A0FF" stroke-linecap="round" stroke-linejoin="round"/>
</g>
<path d="M49.7301 67L42.8001 71V83L32.4101 77L30.7401 78C30.2103 78.3059 29.6096 78.4676 28.9978 78.469C28.386 78.4704 27.7846 78.3114 27.2534 78.0079C26.7223 77.7043 26.28 77.2669 25.9706 76.7391C25.6612 76.2114 25.4955 75.6118 25.4901 75V37C25.4844 35.7639 25.8062 34.5483 26.4227 33.4768C27.0392 32.4054 27.9285 31.5163 29.0001 30.9L72.2001 6.00001C72.7296 5.69657 73.3293 5.53686 73.9396 5.53674C74.5499 5.53662 75.1496 5.69609 75.6792 5.99932C76.2089 6.30255 76.65 6.73901 76.9589 7.26538C77.2678 7.79175 77.4337 8.38974 77.4401 9.00001V37" stroke="#70A0FF" stroke-linecap="round" stroke-linejoin="round"/>
<path d="M27.22 78L22 75C21.4725 74.6954 21.0336 74.2585 20.7266 73.7323C20.4197 73.2062 20.2554 72.6091 20.25 72V34C20.2639 32.7788 20.597 31.5826 21.2163 30.53C21.8355 29.4775 22.7194 28.6053 23.78 28L67 2.99996C67.533 2.69568 68.1362 2.53564 68.75 2.53564C69.3638 2.53564 69.967 2.69568 70.5 2.99996L75.69 5.99996" stroke="#70A0FF" stroke-linecap="round" stroke-linejoin="round"/>
<path d="M89.6099 69.9999L73.9999 78.9999L65.3199 93.9999V83.9999L60.1799 86.9999C59.6501 87.3058 59.0494 87.4675 58.4377 87.4689C57.8259 87.4703 57.2245 87.3113 56.6933 87.0078C56.1621 86.7042 55.7198 86.2668 55.4104 85.739C55.101 85.2113 54.9354 84.6117 54.9299 83.9999V59.9999C54.9313 58.7705 55.2565 57.5632 55.8726 56.4994C56.4888 55.4356 57.3743 54.5528 58.4399 53.9399L87.8599 36.9999C88.3902 36.6972 88.9903 36.538 89.6009 36.5381C90.2115 36.5382 90.8115 36.6976 91.3417 37.0006C91.8719 37.3035 92.3138 37.7395 92.6239 38.2655C92.934 38.7915 93.1016 39.3894 93.1099 39.9999V63.9199C93.1131 65.1517 92.7911 66.3625 92.1766 67.43C91.562 68.4976 90.6767 69.384 89.6099 69.9999V69.9999Z" stroke="#70A0FF" stroke-linecap="round" stroke-linejoin="round"/>
<path d="M56.66 87L51.48 84C50.9525 83.6954 50.5135 83.2585 50.2066 82.7324C49.8997 82.2062 49.7354 81.6091 49.73 81V57C49.7408 55.7818 50.0694 54.5875 50.6833 53.5352C51.2971 52.4829 52.1749 51.6091 53.23 51L82.7 34C83.2314 33.6908 83.8352 33.528 84.45 33.528C85.0648 33.528 85.6686 33.6908 86.2 34L91.37 37" stroke="#70A0FF" stroke-linecap="round" stroke-linejoin="round"/>
<path d="M65.3201 94L60.1201 91L60.1801 86.97" stroke="#70A0FF" stroke-linecap="round" stroke-linejoin="round"/>
<path d="M35.8799 39L68.5899 20.11" stroke="#70A0FF" stroke-linecap="round" stroke-linejoin="round"/>
<path d="M35.8799 45L68.7799 26" stroke="#70A0FF" stroke-linecap="round" stroke-linejoin="round"/>
<path d="M35.8799 51L68.7799 32" stroke="#70A0FF" stroke-linecap="round" stroke-linejoin="round"/>
<path d="M35.8799 57L68.7799 38" stroke="#70A0FF" stroke-linecap="round" stroke-linejoin="round"/>
<path d="M35.8799 62.9999L49.9899 55.1499" stroke="#70A0FF" stroke-linecap="round" stroke-linejoin="round"/>
<path d="M63.5901 61L86.1101 48" stroke="#70A0FF" stroke-linecap="round" stroke-linejoin="round"/>
<path d="M63.5901 67L86.1101 54" stroke="#70A0FF" stroke-linecap="round" stroke-linejoin="round"/>
<path d="M63.5901 73L80.9101 63" stroke="#70A0FF" stroke-linecap="round" stroke-linejoin="round"/>
</svg>
