<svg xmlns="http://www.w3.org/2000/svg" id="eWDRH4dIksG1" shape-rendering="geometricPrecision" text-rendering="geometricPrecision" viewBox="0 0 64 64">
  <g id="eWDRH4dIksG2" stroke-width="1" transform="translate(.000095 .018499)">
    <circle id="eWDRH4dIksG3" r="5.65" fill="none" stroke="#70A0FF" stroke-miterlimit="10" transform="translate(32 43.3)"/>
    <path id="eWDRH4dIksG4" fill="none" stroke="#70A0FF" stroke-miterlimit="10" d="M39.91 11.67c-.004789-1.613069 1.13093-3.004726 2.712212-3.323415C44.203493 8.027896 45.789603 8.871 46.41 10.36L49 15.85c-1.069604-.517276-2.241884-.787276-3.43-.79-2.131662-.013188-4.174881.851111-5.65 2.39Z"/>
    <path id="eWDRH4dIksG5" fill="none" stroke="#70A0FF" stroke-miterlimit="10" d="M24.09 11.67v5.78c-1.475119-1.538889-3.518338-2.403188-5.65-2.39-1.188116.002724-2.360396.272724-3.43.79l2.58-5.49c.620397-1.489 2.206507-2.332104 3.787788-2.013415C22.95907 8.665274 24.094789 10.056931 24.09 11.67Z"/>
    <path id="eWDRH4dIksG6" fill="none" stroke="#70A0FF" stroke-miterlimit="10" d="M37.65 23v20.3c0-3.120409-2.529591-5.65-5.65-5.65-3.120409 0-5.65 2.529591-5.65 5.65V23c0-3.120409 2.529591-5.65 5.65-5.65 3.120409 0 5.65 2.529591 5.65 5.65Z"/>
    <path id="eWDRH4dIksG7" fill="none" stroke="#70A0FF" stroke-miterlimit="10" d="M50.07 30.87c-3.295722-.000001-6.456314 1.309904-8.785804 3.641269C38.954707 36.842634 37.647346 40.004279 37.65 43.3V23c.021923-4.357835 3.552141-7.88359 7.91-7.9 3.067071.009529 5.854379 1.784686 7.16 4.56l.11.27L61.33 38c-2.050465-4.361447-6.440612-7.141354-11.26-7.13Z"/>
    <path id="eWDRH4dIksG8" fill="none" stroke="#70A0FF" stroke-miterlimit="10" d="M26.35 43.3c.006541-5.824074-4.031647-10.871794-9.715109-12.143853C10.951429 29.884089 5.146775 32.728808 2.67 38l8.5-18.14.11-.27c1.305621-2.775314 4.092929-4.550471 7.16-4.56 2.105824.007941 4.122242.852101 5.605658 2.346769S26.357972 20.894177 26.35 23Z"/>
    <path id="eWDRH4dIksG9" fill="#FFF" stroke="#70A0FF" stroke-linecap="round" stroke-linejoin="round" d="M40.07 43.3c0-5.522847 4.477153-10 10-10"/>
    <path id="eWDRH4dIksG10" fill="none" stroke="#70A0FF" stroke-linecap="round" stroke-linejoin="round" d="M61.33 38c.771006 1.660486 1.170298 3.469245 1.17 5.3-.019055 6.331027-4.79717 11.634466-11.09193 12.311416-6.294761.676951-12.091262-3.489273-13.456014-9.671483-1.364752-6.18221 2.139091-12.401529 8.133832-14.437544C52.080629 29.466375 58.647396 32.265376 61.33 38Z"/>
    <path id="eWDRH4dIksG11" fill="#FFF" stroke="#70A0FF" stroke-linecap="round" stroke-linejoin="round" d="M26.35 43.3c.006541-5.824074-4.031647-10.871794-9.715109-12.143853C10.951429 29.884089 5.146775 32.728808 2.67 38c-.780427 1.657287-1.180191 3.468181-1.17 5.3.190801 6.724906 5.697388 12.077473 12.425 12.077473 6.727612 0 12.234199-5.352567 12.425-12.077473Z"/>
    <path id="eWDRH4dIksG12" fill="none" stroke="#70A0FF" stroke-linecap="round" stroke-linejoin="round" d="M13.93 33.3c-3.882019-.001311-7.414024 2.244202-9.06 5.76-.628123 1.324687-.949426 2.77397-.94 4.24"/>
    <circle id="eWDRH4dIksG13" r="5.65" fill="none" stroke="#70A0FF" stroke-linecap="round" stroke-linejoin="round" transform="translate(32 43.3)"/>
    <path id="eWDRH4dIksG14" fill="none" stroke="#70A0FF" stroke-linecap="round" stroke-linejoin="round" d="M37.65 23c0-3.120409-2.529591-5.65-5.65-5.65-3.120409 0-5.65 2.529591-5.65 5.65"/>
    <path id="eWDRH4dIksG15" fill="none" stroke="#70A0FF" stroke-linecap="round" stroke-linejoin="round" d="m61.33 38-8.5-18.14-.11-.27c-1.305621-2.775314-4.092929-4.550471-7.16-4.56-2.105824.007941-4.122242.852101-5.605658 2.346769S37.642028 20.894177 37.65 23v20.3"/>
    <path id="eWDRH4dIksG16" fill="none" stroke="#70A0FF" stroke-linecap="round" stroke-linejoin="round" d="m2.67 38 8.5-18.14.11-.27c1.305621-2.775314 4.092929-4.550471 7.16-4.56 2.105824.007941 4.122242.852101 5.605658 2.346769S26.357972 20.894177 26.35 23v20.3"/>
    <path id="eWDRH4dIksG17" fill="none" stroke="#70A0FF" stroke-linecap="round" stroke-linejoin="round" d="M39.91 17.45v-5.78c-.004789-1.613069 1.13093-3.004726 2.712212-3.323415C44.203493 8.027896 45.789603 8.871 46.41 10.36L49 15.85"/>
    <path id="eWDRH4dIksG18" fill="none" stroke="#70A0FF" stroke-linecap="round" stroke-linejoin="round" d="M24.09 17.45v-5.78c.004789-1.613069-1.13093-3.004726-2.712212-3.323415C19.796507 8.027896 18.210397 8.871 17.59 10.36L15 15.85"/>
    <circle id="eWDRH4dIksG19" r="4" fill="#37464C" stroke="none" transform="translate(13.93 43.3)"/>
  </g>
  <g id="eWDRH4dIksG20" transform="translate(.000095 .018499)">
    <circle id="eWDRH4dIksG21" r="5.65" fill="none" stroke="#70A0FF" stroke-miterlimit="10" stroke-width="1" transform="translate(31.999905 43.3)"/>
    <path id="eWDRH4dIksG22" fill="none" stroke="#70A0FF" stroke-miterlimit="10" stroke-width="1" d="M39.909905 11.67c-.004789-1.613069 1.13093-3.004726 2.712212-3.323415 1.581281-.318689 3.167391.524415 3.787788 2.013415l2.59 5.49c-1.069604-.517276-2.241884-.787276-3.43-.79-2.131662-.013188-4.174881.851111-5.65 2.39Z"/>
    <path id="eWDRH4dIksG23" fill="none" stroke="#70A0FF" stroke-miterlimit="10" stroke-width="1" d="M24.089905 11.67v5.78c-1.475119-1.538889-3.518338-2.403188-5.65-2.39-1.188116.002724-2.360396.272724-3.43.79l2.58-5.49c.620397-1.489 2.206507-2.332104 3.787788-2.013415 1.581282.318689 2.717001 1.710346 2.712212 3.323415Z"/>
    <path id="eWDRH4dIksG24" fill="none" stroke="#70A0FF" stroke-miterlimit="10" stroke-width="1" d="M37.649905 23v20.3c0-3.120409-2.529591-5.65-5.65-5.65-3.120409 0-5.65 2.529591-5.65 5.65V23c0-3.120409 2.529591-5.65 5.65-5.65 3.120409 0 5.65 2.529591 5.65 5.65Z"/>
    <path id="eWDRH4dIksG25" fill="none" stroke="#70A0FF" stroke-miterlimit="10" stroke-width="1" d="M50.069905 30.87c-3.295722-.000001-6.456314 1.309904-8.785804 3.641269-2.329489 2.331365-3.63685 5.49301-3.634196 8.788731V23c.021923-4.357835 3.552141-7.88359 7.91-7.9 3.067071.009529 5.854379 1.784686 7.16 4.56l.11.27 8.5 18.07c-2.050465-4.361447-6.440612-7.141354-11.26-7.13Z"/>
    <path id="eWDRH4dIksG26" fill="none" stroke="#70A0FF" stroke-miterlimit="10" stroke-width="1" d="M26.349905 43.3c.006541-5.824074-4.031647-10.871794-9.715109-12.143853C10.951334 29.884089 5.14668 32.728808 2.669905 38l8.5-18.14.11-.27c1.305621-2.775314 4.092929-4.550471 7.16-4.56 2.105824.007941 4.122242.852101 5.605658 2.346769S26.357877 20.894177 26.349905 23Z"/>
    <path id="eWDRH4dIksG27" fill="none" stroke="#70A0FF" stroke-linecap="round" stroke-linejoin="round" stroke-width="1" d="M40.07 43.3c0-5.522847 4.477153-10 10-10"/>
    <path id="eWDRH4dIksG28" fill="#FFF" stroke="#70A0FF" stroke-linecap="round" stroke-linejoin="round" stroke-width="2" d="M61.33 38c.771006 1.660486 1.170298 3.469245 1.17 5.3-.019055 6.331027-4.79717 11.634466-11.09193 12.311416-6.294761.676951-12.091262-3.489273-13.456014-9.671483-1.364752-6.18221 2.139091-12.401529 8.133832-14.437544C52.080629 29.466375 58.647396 32.265376 61.33 38Z"/>
    <path id="eWDRH4dIksG29" fill="#FFF" stroke="#70A0FF" stroke-linecap="round" stroke-linejoin="round" stroke-width="2" d="M26.35 43.3c.006541-5.824074-4.031647-10.871794-9.715109-12.143853C10.951429 29.884089 5.146775 32.728808 2.67 38c-.780427 1.657287-1.180191 3.468181-1.17 5.3.190801 6.724906 5.697388 12.077473 12.425 12.077473 6.727612 0 12.234199-5.352567 12.425-12.077473Z"/>
    <path id="eWDRH4dIksG30" fill="none" stroke="#70A0FF" stroke-linecap="round" stroke-linejoin="round" stroke-width="2" d="M13.93 33.3c-3.882019-.001311-7.414024 2.244202-9.06 5.76-.628123 1.324687-.949426 2.77397-.94 4.24"/>
    <circle id="eWDRH4dIksG31" r="5.65" fill="none" stroke="#70A0FF" stroke-linecap="round" stroke-linejoin="round" stroke-width="2" transform="translate(32 43.3)"/>
    <path id="eWDRH4dIksG32" fill="none" stroke="#70A0FF" stroke-linecap="round" stroke-linejoin="round" stroke-width="2" d="M37.65 23c0-3.120409-2.529591-5.65-5.65-5.65-3.120409 0-5.65 2.529591-5.65 5.65"/>
    <path id="eWDRH4dIksG33" fill="none" stroke="#70A0FF" stroke-linecap="round" stroke-linejoin="round" stroke-width="2" d="m61.33 38-8.5-18.14-.11-.27c-1.305621-2.775314-4.092929-4.550471-7.16-4.56-2.105824.007941-4.122242.852101-5.605658 2.346769S37.642028 20.894177 37.65 23v20.3"/>
    <path id="eWDRH4dIksG34" fill="none" stroke="#70A0FF" stroke-linecap="round" stroke-linejoin="round" stroke-width="2" d="m2.67 38 8.5-18.14.11-.27c1.305621-2.775314 4.092929-4.550471 7.16-4.56 2.105824.007941 4.122242.852101 5.605658 2.346769S26.357972 20.894177 26.35 23v20.3"/>
    <path id="eWDRH4dIksG35" fill="none" stroke="#70A0FF" stroke-linecap="round" stroke-linejoin="round" stroke-width="2" d="M39.91 17.45v-5.78c-.004789-1.613069 1.13093-3.004726 2.712212-3.323415C44.203493 8.027896 45.789603 8.871 46.41 10.36L49 15.85"/>
    <path id="eWDRH4dIksG36" fill="none" stroke="#70A0FF" stroke-linecap="round" stroke-linejoin="round" stroke-width="2" d="M24.09 17.45v-5.78c.004789-1.613069-1.13093-3.004726-2.712212-3.323415C19.796507 8.027896 18.210397 8.871 17.59 10.36L15 15.85"/>
    <g style="animation:eWDRH4dIksG37_to__to 6000ms linear infinite normal forwards">
      <g style="animation:eWDRH4dIksG37_ts__ts 6000ms linear infinite normal forwards" transform="translate(13.93 43.299999)">
        <circle id="eWDRH4dIksG37" r="4" fill="#37464C" stroke="none" stroke-width="1" transform="translate(0 .000001)"/>
      </g>
    </g>
    <g style="animation:eWDRH4dIksG38_to__to 6000ms linear infinite normal forwards">
      <g style="animation:eWDRH4dIksG38_ts__ts 6000ms linear infinite normal forwards" transform="translate(50.07 43.299999)">
        <circle id="eWDRH4dIksG38" r="4" fill="#37464C" stroke="none" stroke-width="1" transform="translate(0 .000001)"/>
      </g>
    </g>
  </g>
</svg>
