<svg width="96" height="96" viewBox="0 0 96 96" fill="none" xmlns="http://www.w3.org/2000/svg">
<g opacity="0.4">
<path d="M44.54 12L13.36 30L6.42999 42L13.36 46L37.61 32" stroke="#70A0FF" stroke-linecap="round" stroke-linejoin="round"/>
<path d="M44.54 8L9.93997 27.98L2.96997 40L6.42997 42" stroke="#70A0FF" stroke-linecap="round" stroke-linejoin="round"/>
<path d="M39.34 39L13.45 53.95L6.42999 66L13.36 70L37.61 56" stroke="#70A0FF" stroke-linecap="round" stroke-linejoin="round"/>
<path d="M37.61 36L9.93997 51.98L2.96997 64L6.42997 66" stroke="#70A0FF" stroke-linecap="round" stroke-linejoin="round"/>
<path d="M51.47 8L56.66 5V11" stroke="#70A0FF" stroke-linecap="round" stroke-linejoin="round"/>
<path d="M58.39 34V30" stroke="#70A0FF" stroke-linecap="round" stroke-linejoin="round"/>
<path d="M56.66 5L53.2 3L50.45 4.58" stroke="#70A0FF" stroke-linecap="round" stroke-linejoin="round"/>
</g>
<path d="M44.54 6V18" stroke="#70A0FF" stroke-linecap="round" stroke-linejoin="round"/>
<path d="M51.47 6V14" stroke="#70A0FF" stroke-linecap="round" stroke-linejoin="round"/>
<path d="M41.07 40L37.61 38V22L72.25 2L75.72 4" stroke="#70A0FF" stroke-linecap="round" stroke-linejoin="round"/>
<path d="M41.07 48L86.1 22L93.03 26L86.1 38L49.73 59L41.07 64V48Z" stroke="#70A0FF" stroke-linecap="round" stroke-linejoin="round"/>
<path d="M41.07 64L37.6 62V46L82.64 20L86.1 22" stroke="#70A0FF" stroke-linecap="round" stroke-linejoin="round"/>
<path d="M44.54 42L44.53 38" stroke="#70A0FF" stroke-linecap="round" stroke-linejoin="round"/>
<path d="M44.53 80L44.54 62" stroke="#70A0FF" stroke-linecap="round" stroke-linejoin="round"/>
<path d="M51.47 38L51.46 34" stroke="#70A0FF" stroke-linecap="round" stroke-linejoin="round"/>
<path d="M51.46 80L51.47 58" stroke="#70A0FF" stroke-linecap="round" stroke-linejoin="round"/>
<path d="M48 8.00999C49.9109 8.00999 51.46 7.11008 51.46 5.99999C51.46 4.8899 49.9109 3.98999 48 3.98999C46.0891 3.98999 44.54 4.8899 44.54 5.99999C44.54 7.11008 46.0891 8.00999 48 8.00999Z" stroke="#70A0FF" stroke-linecap="round" stroke-linejoin="round"/>
<path d="M51.46 80C51.46 81.11 49.91 82 48 82C46.09 82 44.53 81.1 44.53 80" stroke="#70A0FF" stroke-linecap="round" stroke-linejoin="round"/>
<path d="M41.07 24L75.72 4L82.64 8L75.72 20L49.73 35L41.07 40V24Z" stroke="#70A0FF" stroke-linecap="round" stroke-linejoin="round"/>
<path d="M37.61 22L41.07 24" stroke="#70A0FF" stroke-linecap="round" stroke-linejoin="round"/>
<path d="M37.61 46L41.07 48" stroke="#70A0FF" stroke-linecap="round" stroke-linejoin="round"/>
<path d="M51.46 70L70.64 81.07L48 94L25.48 81L44.54 70" stroke="#70A0FF" stroke-linecap="round" stroke-linejoin="round"/>
</svg>
