<svg width="96" height="96" viewBox="0 0 96 96" fill="none" xmlns="http://www.w3.org/2000/svg">
<g opacity="0.4">
<path d="M30.2899 38.2299L23.7499 41.9999V49.9999L16.8199 45.9999L15.1399 46.9999C14.6101 47.3058 14.0094 47.4675 13.3976 47.4689C12.7859 47.4702 12.1844 47.3113 11.6533 47.0077C11.1221 46.7042 10.6798 46.2668 10.3704 45.739C10.061 45.2113 9.89531 44.6116 9.88989 43.9999V25.9999C9.8923 24.7695 10.2189 23.5616 10.8369 22.4977C11.4549 21.4338 12.3424 20.5515 13.4099 19.9399L35.8299 6.99989C36.3594 6.69645 36.9591 6.53674 37.5694 6.53662C38.1797 6.5365 38.7794 6.69597 39.3091 6.9992C39.8387 7.30243 40.2799 7.73889 40.5887 8.26526C40.8976 8.79163 41.0635 9.38962 41.0699 9.99989V13.9999" stroke="#70A0FF" stroke-linecap="round" stroke-linejoin="round"/>
<path d="M11.63 47L6.44995 44C5.92242 43.6954 5.48351 43.2585 5.17659 42.7323C4.86967 42.2062 4.70538 41.6091 4.69995 41V23C4.7108 21.7818 5.03938 20.5875 5.65322 19.5352C6.26706 18.4829 7.14489 17.609 8.19995 17L30.66 3.99996C31.193 3.69568 31.7962 3.53564 32.41 3.53564C33.0237 3.53564 33.6269 3.69568 34.16 3.99996L39.34 6.99996" stroke="#70A0FF" stroke-linecap="round" stroke-linejoin="round"/>
</g>
<path d="M70.5201 67V71C70.5072 72.2201 70.1756 73.4157 69.5582 74.4682C68.9407 75.5207 68.0589 76.3934 67.0001 77L39.3401 93C38.8103 93.3059 38.2096 93.4676 37.5978 93.469C36.9861 93.4704 36.3846 93.3114 35.8535 93.0078C35.3223 92.7043 34.88 92.2669 34.5706 91.7391C34.2612 91.2114 34.0955 90.6117 34.0901 90L35.8801 27C35.8909 25.7818 36.2195 24.5875 36.8334 23.5352C37.4472 22.4829 38.325 21.6091 39.3801 21L65.2701 6C65.7999 5.69409 66.4006 5.53239 67.0124 5.53101C67.6241 5.52964 68.2256 5.68864 68.7567 5.99215C69.2879 6.29567 69.7302 6.73311 70.0396 7.26087C70.349 7.78862 70.5147 8.38826 70.5201 9V41" stroke="#70A0FF" stroke-linecap="round" stroke-linejoin="round"/>
<path d="M35.88 93L30.7 90C30.1804 89.6907 29.7504 89.2514 29.4523 88.7253C29.1542 88.1993 28.9983 87.6046 29 87L30.68 24C30.6909 22.7818 31.0194 21.5875 31.6333 20.5352C32.2471 19.4829 33.125 18.609 34.18 18L60.11 2.99996C60.6431 2.69568 61.2462 2.53564 61.86 2.53564C62.4738 2.53564 63.077 2.69568 63.61 2.99996L68.78 5.99996" stroke="#70A0FF" stroke-linecap="round" stroke-linejoin="round"/>
<path d="M49.73 21L56.66 17" stroke="#70A0FF" stroke-linecap="round" stroke-linejoin="round"/>
<path d="M63.5901 49L93.0301 32L79.1801 56L63.5901 49Z" stroke="#70A0FF" stroke-linecap="round" stroke-linejoin="round"/>
<path d="M63.5901 71L60.1201 69V47L63.5901 49V71ZM63.5901 71L93.0301 54V32L89.5701 30L60.1201 47" stroke="#70A0FF" stroke-linecap="round" stroke-linejoin="round"/>
</svg>
