<svg width="96" height="96" viewBox="0 0 96 96" fill="none" xmlns="http://www.w3.org/2000/svg">
<path d="M8.16 93V49L84.37 5V49L8.16 93Z" stroke="#70A0FF" stroke-linecap="round" stroke-linejoin="round"/>
<path d="M8.16 93L2.97 90V46L8.16 49" stroke="#70A0FF" stroke-linecap="round" stroke-linejoin="round"/>
<path d="M2.97 46L79.18 2L84.37 5" stroke="#70A0FF" stroke-linecap="round" stroke-linejoin="round"/>
<path d="M15.09 53V81L56.66 57V29L15.09 53Z" stroke="#70A0FF" stroke-linecap="round" stroke-linejoin="round"/>
<path d="M34.14 50V62L41.07 52L34.14 50Z" stroke="#70A0FF" stroke-linecap="round" stroke-linejoin="round"/>
<path d="M61.86 26L77.44 17" stroke="#70A0FF" stroke-linecap="round" stroke-linejoin="round"/>
<path d="M61.86 30L77.44 21" stroke="#70A0FF" stroke-linecap="round" stroke-linejoin="round"/>
<path d="M61.86 34L77.44 25" stroke="#70A0FF" stroke-linecap="round" stroke-linejoin="round"/>
<path d="M61.86 38L77.44 29" stroke="#70A0FF" stroke-linecap="round" stroke-linejoin="round"/>
<path d="M61.86 42L73.98 35" stroke="#70A0FF" stroke-linecap="round" stroke-linejoin="round"/>
<g opacity="0.4">
<path d="M84.37 55C91.3 59 82.64 66 84.37 71C77.44 67 86.11 60 84.37 55Z" stroke="#70A0FF" stroke-linecap="round" stroke-linejoin="round"/>
<path d="M84.37 81C88.1973 81 91.3 79.2091 91.3 77C91.3 74.7909 88.1973 73 84.37 73C80.5427 73 77.44 74.7909 77.44 77C77.44 79.2091 80.5427 81 84.37 81Z" stroke="#70A0FF" stroke-linecap="round" stroke-linejoin="round"/>
<path d="M89.53 88C89.53 89.66 87.22 91 84.36 91C81.5 91 79.18 89.66 79.18 88" stroke="#70A0FF" stroke-linecap="round" stroke-linejoin="round"/>
<path d="M77.46 77.25L79.18 88" stroke="#70A0FF" stroke-linecap="round" stroke-linejoin="round"/>
<path d="M91.3 77.14L89.53 88" stroke="#70A0FF" stroke-linecap="round" stroke-linejoin="round"/>
<path d="M90.82 80.11C92.39 78.74 94.3 78.81 94.3 80.66C94.3 82.04 93.12 84.66 89.83 86.15" stroke="#70A0FF" stroke-linecap="round" stroke-linejoin="round"/>
</g>
<path d="M32.41 79V87L44.54 94L65.32 82L53.2 75V67" stroke="#70A0FF" stroke-linecap="round" stroke-linejoin="round"/>
<path d="M53.2 75L32.41 87" stroke="#70A0FF" stroke-linecap="round" stroke-linejoin="round"/>
</svg>
