<svg width="216" height="217" viewBox="0 0 216 217" fill="none" xmlns="http://www.w3.org/2000/svg">
<path d="M40.7106 103.438L108 142.25L87.5387 176L20.3172 137.188L40.7106 103.438Z" stroke="#70A0FF" stroke-linecap="round" stroke-linejoin="round"/>
<path d="M108 64.625L40.7782 103.438L4.23538 111.031L71.4654 72.2188L108 64.625Z" stroke="#70A0FF" stroke-linecap="round" stroke-linejoin="round"/>
<path d="M108.025 64.625L175.255 103.438L211.79 111.031L144.56 72.2188L108.025 64.625Z" stroke="#70A0FF" stroke-linecap="round" stroke-linejoin="round"/>
<path d="M108 213.125L40.7781 174.312V149" stroke="#70A0FF" stroke-linecap="round" stroke-linejoin="round"/>
<path d="M175.255 103.438L108.329 142.25L128.461 176L195.766 137.145L175.255 103.438Z" stroke="#70A0FF" stroke-linecap="round" stroke-linejoin="round"/>
<path d="M108 64.625V213.125L175.222 174.312V149" stroke="#70A0FF" stroke-linecap="round" stroke-linejoin="round"/>
<path d="M40.7785 103.438L108 142.25V2.1875L18.8494 53.6562L40.7785 103.438Z" fill="url(#paint0_linear_5011_28715)"/>
<path d="M175.222 103.438L108 142.25V2.1875L197.151 53.6562L175.222 103.438Z" fill="url(#paint1_linear_5011_28715)"/>
<path d="M134.308 40.9833C141.764 40.9833 147.808 34.9391 147.808 27.4833C147.808 20.0274 141.764 13.9833 134.308 13.9833C126.852 13.9833 120.808 20.0274 120.808 27.4833C120.808 34.9391 126.852 40.9833 134.308 40.9833Z" fill="url(#paint2_radial_5011_28715)"/>
<path d="M134.308 30.8583C136.172 30.8583 137.683 29.3472 137.683 27.4833C137.683 25.6193 136.172 24.1083 134.308 24.1083C132.444 24.1083 130.933 25.6193 130.933 27.4833C130.933 29.3472 132.444 30.8583 134.308 30.8583Z" fill="#70A0FF"/>
<path d="M157.5 72.5C164.956 72.5 171 66.4558 171 59C171 51.5442 164.956 45.5 157.5 45.5C150.044 45.5 144 51.5442 144 59C144 66.4558 150.044 72.5 157.5 72.5Z" fill="url(#paint3_radial_5011_28715)"/>
<path d="M157.5 62.375C159.364 62.375 160.875 60.864 160.875 59C160.875 57.136 159.364 55.625 157.5 55.625C155.636 55.625 154.125 57.136 154.125 59C154.125 60.864 155.636 62.375 157.5 62.375Z" fill="#70A0FF"/>
<path d="M123.75 99.5C131.206 99.5 137.25 93.4558 137.25 86C137.25 78.5442 131.206 72.5 123.75 72.5C116.294 72.5 110.25 78.5442 110.25 86C110.25 93.4558 116.294 99.5 123.75 99.5Z" fill="url(#paint4_radial_5011_28715)"/>
<path d="M123.75 89.375C125.614 89.375 127.125 87.864 127.125 86C127.125 84.136 125.614 82.625 123.75 82.625C121.886 82.625 120.375 84.136 120.375 86C120.375 87.864 121.886 89.375 123.75 89.375Z" fill="#70A0FF"/>
<path d="M139.5 122C146.956 122 153 115.956 153 108.5C153 101.044 146.956 95 139.5 95C132.044 95 126 101.044 126 108.5C126 115.956 132.044 122 139.5 122Z" fill="url(#paint5_radial_5011_28715)"/>
<path d="M139.5 111.875C141.364 111.875 142.875 110.364 142.875 108.5C142.875 106.636 141.364 105.125 139.5 105.125C137.636 105.125 136.125 106.636 136.125 108.5C136.125 110.364 137.636 111.875 139.5 111.875Z" fill="#70A0FF"/>
<path d="M117 122C124.456 122 130.5 115.956 130.5 108.5C130.5 101.044 124.456 95 117 95C109.544 95 103.5 101.044 103.5 108.5C103.5 115.956 109.544 122 117 122Z" fill="url(#paint6_radial_5011_28715)"/>
<path d="M117 111.875C118.864 111.875 120.375 110.364 120.375 108.5C120.375 106.636 118.864 105.125 117 105.125C115.136 105.125 113.625 106.636 113.625 108.5C113.625 110.364 115.136 111.875 117 111.875Z" fill="#70A0FF"/>
<path d="M83.2502 117.5C90.706 117.5 96.7502 111.456 96.7502 104C96.7502 96.5442 90.706 90.5 83.2502 90.5C75.7943 90.5 69.7502 96.5442 69.7502 104C69.7502 111.456 75.7943 117.5 83.2502 117.5Z" fill="url(#paint7_radial_5011_28715)"/>
<path d="M83.2502 107.375C85.1141 107.375 86.6252 105.864 86.6252 104C86.6252 102.136 85.1141 100.625 83.2502 100.625C81.3862 100.625 79.8752 102.136 79.8752 104C79.8752 105.864 81.3862 107.375 83.2502 107.375Z" fill="#70A0FF"/>
<path d="M101.25 92.75C108.706 92.75 114.75 86.7058 114.75 79.25C114.75 71.7942 108.706 65.75 101.25 65.75C93.7943 65.75 87.7502 71.7942 87.7502 79.25C87.7502 86.7058 93.7943 92.75 101.25 92.75Z" fill="url(#paint8_radial_5011_28715)"/>
<path d="M101.25 82.625C103.114 82.625 104.625 81.114 104.625 79.25C104.625 77.386 103.114 75.875 101.25 75.875C99.3862 75.875 97.8752 77.386 97.8752 79.25C97.8752 81.114 99.3862 82.625 101.25 82.625Z" fill="#70A0FF"/>
<path d="M56.2502 81.5C63.706 81.5 69.7502 75.4558 69.7502 68C69.7502 60.5442 63.706 54.5 56.2502 54.5C48.7943 54.5 42.7502 60.5442 42.7502 68C42.7502 75.4558 48.7943 81.5 56.2502 81.5Z" fill="url(#paint9_radial_5011_28715)"/>
<path d="M56.2502 71.375C58.1141 71.375 59.6251 69.864 59.6251 68C59.6251 66.136 58.1141 64.625 56.2502 64.625C54.3862 64.625 52.8752 66.136 52.8752 68C52.8752 69.864 54.3862 71.375 56.2502 71.375Z" fill="#70A0FF"/>
<path d="M92.2502 63.5C99.706 63.5 105.75 57.4558 105.75 50C105.75 42.5442 99.706 36.5 92.2502 36.5C84.7943 36.5 78.7502 42.5442 78.7502 50C78.7502 57.4558 84.7943 63.5 92.2502 63.5Z" fill="url(#paint10_radial_5011_28715)"/>
<path d="M92.2502 53.375C94.1141 53.375 95.6252 51.864 95.6252 50C95.6252 48.136 94.1141 46.625 92.2502 46.625C90.3862 46.625 88.8752 48.136 88.8752 50C88.8752 51.864 90.3862 53.375 92.2502 53.375Z" fill="#70A0FF"/>
<path d="M92.2502 32C99.706 32 105.75 25.9558 105.75 18.5C105.75 11.0442 99.706 5 92.2502 5C84.7943 5 78.7502 11.0442 78.7502 18.5C78.7502 25.9558 84.7943 32 92.2502 32Z" fill="url(#paint11_radial_5011_28715)"/>
<path d="M92.2502 21.875C94.1141 21.875 95.6252 20.364 95.6252 18.5C95.6252 16.636 94.1141 15.125 92.2502 15.125C90.3862 15.125 88.8752 16.636 88.8752 18.5C88.8752 20.364 90.3862 21.875 92.2502 21.875Z" fill="#70A0FF"/>
<defs>
<linearGradient id="paint0_linear_5011_28715" x1="121.517" y1="134.445" x2="60.8682" y2="29.3984" gradientUnits="userSpaceOnUse">
<stop stop-color="#8FB4FF"/>
<stop offset="0.16" stop-color="#8FB4FF" stop-opacity="0.76"/>
<stop offset="0.32" stop-color="#8FB4FF" stop-opacity="0.53"/>
<stop offset="0.49" stop-color="#8FB4FF" stop-opacity="0.34"/>
<stop offset="0.64" stop-color="#8FB4FF" stop-opacity="0.19"/>
<stop offset="0.78" stop-color="#8FB4FF" stop-opacity="0.09"/>
<stop offset="0.9" stop-color="#8FB4FF" stop-opacity="0.02"/>
<stop offset="1" stop-color="#8FB4FF" stop-opacity="0"/>
</linearGradient>
<linearGradient id="paint1_linear_5011_28715" x1="94.4834" y1="134.445" x2="155.132" y2="29.3984" gradientUnits="userSpaceOnUse">
<stop stop-color="#8FB4FF"/>
<stop offset="0.16" stop-color="#8FB4FF" stop-opacity="0.76"/>
<stop offset="0.32" stop-color="#8FB4FF" stop-opacity="0.53"/>
<stop offset="0.49" stop-color="#8FB4FF" stop-opacity="0.34"/>
<stop offset="0.64" stop-color="#8FB4FF" stop-opacity="0.19"/>
<stop offset="0.78" stop-color="#8FB4FF" stop-opacity="0.09"/>
<stop offset="0.9" stop-color="#8FB4FF" stop-opacity="0.02"/>
<stop offset="1" stop-color="#8FB4FF" stop-opacity="0"/>
</linearGradient>
<radialGradient id="paint2_radial_5011_28715" cx="0" cy="0" r="1" gradientUnits="userSpaceOnUse" gradientTransform="translate(134.122 27.4765) scale(13.4797)">
<stop offset="0.2" stop-color="#8FB4FF" stop-opacity="0.7"/>
<stop offset="0.27" stop-color="#8FB4FF" stop-opacity="0.58"/>
<stop offset="0.39" stop-color="#8FB4FF" stop-opacity="0.41"/>
<stop offset="0.52" stop-color="#8FB4FF" stop-opacity="0.26"/>
<stop offset="0.64" stop-color="#8FB4FF" stop-opacity="0.15"/>
<stop offset="0.76" stop-color="#8FB4FF" stop-opacity="0.07"/>
<stop offset="0.88" stop-color="#8FB4FF" stop-opacity="0.02"/>
<stop offset="1" stop-color="#8FB4FF" stop-opacity="0"/>
</radialGradient>
<radialGradient id="paint3_radial_5011_28715" cx="0" cy="0" r="1" gradientUnits="userSpaceOnUse" gradientTransform="translate(157.315 58.9932) scale(13.4797)">
<stop offset="0.2" stop-color="#8FB4FF" stop-opacity="0.7"/>
<stop offset="0.27" stop-color="#8FB4FF" stop-opacity="0.58"/>
<stop offset="0.39" stop-color="#8FB4FF" stop-opacity="0.41"/>
<stop offset="0.52" stop-color="#8FB4FF" stop-opacity="0.26"/>
<stop offset="0.64" stop-color="#8FB4FF" stop-opacity="0.15"/>
<stop offset="0.76" stop-color="#8FB4FF" stop-opacity="0.07"/>
<stop offset="0.88" stop-color="#8FB4FF" stop-opacity="0.02"/>
<stop offset="1" stop-color="#8FB4FF" stop-opacity="0"/>
</radialGradient>
<radialGradient id="paint4_radial_5011_28715" cx="0" cy="0" r="1" gradientUnits="userSpaceOnUse" gradientTransform="translate(123.565 85.9932) scale(13.4797)">
<stop offset="0.2" stop-color="#8FB4FF" stop-opacity="0.7"/>
<stop offset="0.27" stop-color="#8FB4FF" stop-opacity="0.58"/>
<stop offset="0.39" stop-color="#8FB4FF" stop-opacity="0.41"/>
<stop offset="0.52" stop-color="#8FB4FF" stop-opacity="0.26"/>
<stop offset="0.64" stop-color="#8FB4FF" stop-opacity="0.15"/>
<stop offset="0.76" stop-color="#8FB4FF" stop-opacity="0.07"/>
<stop offset="0.88" stop-color="#8FB4FF" stop-opacity="0.02"/>
<stop offset="1" stop-color="#8FB4FF" stop-opacity="0"/>
</radialGradient>
<radialGradient id="paint5_radial_5011_28715" cx="0" cy="0" r="1" gradientUnits="userSpaceOnUse" gradientTransform="translate(139.315 108.493) scale(13.4797)">
<stop offset="0.2" stop-color="#8FB4FF" stop-opacity="0.7"/>
<stop offset="0.27" stop-color="#8FB4FF" stop-opacity="0.58"/>
<stop offset="0.39" stop-color="#8FB4FF" stop-opacity="0.41"/>
<stop offset="0.52" stop-color="#8FB4FF" stop-opacity="0.26"/>
<stop offset="0.64" stop-color="#8FB4FF" stop-opacity="0.15"/>
<stop offset="0.76" stop-color="#8FB4FF" stop-opacity="0.07"/>
<stop offset="0.88" stop-color="#8FB4FF" stop-opacity="0.02"/>
<stop offset="1" stop-color="#8FB4FF" stop-opacity="0"/>
</radialGradient>
<radialGradient id="paint6_radial_5011_28715" cx="0" cy="0" r="1" gradientUnits="userSpaceOnUse" gradientTransform="translate(116.815 108.493) scale(13.4797)">
<stop offset="0.2" stop-color="#8FB4FF" stop-opacity="0.7"/>
<stop offset="0.27" stop-color="#8FB4FF" stop-opacity="0.58"/>
<stop offset="0.39" stop-color="#8FB4FF" stop-opacity="0.41"/>
<stop offset="0.52" stop-color="#8FB4FF" stop-opacity="0.26"/>
<stop offset="0.64" stop-color="#8FB4FF" stop-opacity="0.15"/>
<stop offset="0.76" stop-color="#8FB4FF" stop-opacity="0.07"/>
<stop offset="0.88" stop-color="#8FB4FF" stop-opacity="0.02"/>
<stop offset="1" stop-color="#8FB4FF" stop-opacity="0"/>
</radialGradient>
<radialGradient id="paint7_radial_5011_28715" cx="0" cy="0" r="1" gradientUnits="userSpaceOnUse" gradientTransform="translate(83.0645 103.993) scale(13.4797)">
<stop offset="0.2" stop-color="#8FB4FF" stop-opacity="0.7"/>
<stop offset="0.27" stop-color="#8FB4FF" stop-opacity="0.58"/>
<stop offset="0.39" stop-color="#8FB4FF" stop-opacity="0.41"/>
<stop offset="0.52" stop-color="#8FB4FF" stop-opacity="0.26"/>
<stop offset="0.64" stop-color="#8FB4FF" stop-opacity="0.15"/>
<stop offset="0.76" stop-color="#8FB4FF" stop-opacity="0.07"/>
<stop offset="0.88" stop-color="#8FB4FF" stop-opacity="0.02"/>
<stop offset="1" stop-color="#8FB4FF" stop-opacity="0"/>
</radialGradient>
<radialGradient id="paint8_radial_5011_28715" cx="0" cy="0" r="1" gradientUnits="userSpaceOnUse" gradientTransform="translate(101.065 79.2432) scale(13.4797)">
<stop offset="0.2" stop-color="#8FB4FF" stop-opacity="0.7"/>
<stop offset="0.27" stop-color="#8FB4FF" stop-opacity="0.58"/>
<stop offset="0.39" stop-color="#8FB4FF" stop-opacity="0.41"/>
<stop offset="0.52" stop-color="#8FB4FF" stop-opacity="0.26"/>
<stop offset="0.64" stop-color="#8FB4FF" stop-opacity="0.15"/>
<stop offset="0.76" stop-color="#8FB4FF" stop-opacity="0.07"/>
<stop offset="0.88" stop-color="#8FB4FF" stop-opacity="0.02"/>
<stop offset="1" stop-color="#8FB4FF" stop-opacity="0"/>
</radialGradient>
<radialGradient id="paint9_radial_5011_28715" cx="0" cy="0" r="1" gradientUnits="userSpaceOnUse" gradientTransform="translate(56.0645 67.9932) scale(13.4797)">
<stop offset="0.2" stop-color="#8FB4FF" stop-opacity="0.7"/>
<stop offset="0.27" stop-color="#8FB4FF" stop-opacity="0.58"/>
<stop offset="0.39" stop-color="#8FB4FF" stop-opacity="0.41"/>
<stop offset="0.52" stop-color="#8FB4FF" stop-opacity="0.26"/>
<stop offset="0.64" stop-color="#8FB4FF" stop-opacity="0.15"/>
<stop offset="0.76" stop-color="#8FB4FF" stop-opacity="0.07"/>
<stop offset="0.88" stop-color="#8FB4FF" stop-opacity="0.02"/>
<stop offset="1" stop-color="#8FB4FF" stop-opacity="0"/>
</radialGradient>
<radialGradient id="paint10_radial_5011_28715" cx="0" cy="0" r="1" gradientUnits="userSpaceOnUse" gradientTransform="translate(92.0645 49.9932) scale(13.4797)">
<stop offset="0.2" stop-color="#8FB4FF" stop-opacity="0.7"/>
<stop offset="0.27" stop-color="#8FB4FF" stop-opacity="0.58"/>
<stop offset="0.39" stop-color="#8FB4FF" stop-opacity="0.41"/>
<stop offset="0.52" stop-color="#8FB4FF" stop-opacity="0.26"/>
<stop offset="0.64" stop-color="#8FB4FF" stop-opacity="0.15"/>
<stop offset="0.76" stop-color="#8FB4FF" stop-opacity="0.07"/>
<stop offset="0.88" stop-color="#8FB4FF" stop-opacity="0.02"/>
<stop offset="1" stop-color="#8FB4FF" stop-opacity="0"/>
</radialGradient>
<radialGradient id="paint11_radial_5011_28715" cx="0" cy="0" r="1" gradientUnits="userSpaceOnUse" gradientTransform="translate(92.0645 18.4932) scale(13.4797)">
<stop offset="0.2" stop-color="#8FB4FF" stop-opacity="0.7"/>
<stop offset="0.27" stop-color="#8FB4FF" stop-opacity="0.58"/>
<stop offset="0.39" stop-color="#8FB4FF" stop-opacity="0.41"/>
<stop offset="0.52" stop-color="#8FB4FF" stop-opacity="0.26"/>
<stop offset="0.64" stop-color="#8FB4FF" stop-opacity="0.15"/>
<stop offset="0.76" stop-color="#8FB4FF" stop-opacity="0.07"/>
<stop offset="0.88" stop-color="#8FB4FF" stop-opacity="0.02"/>
<stop offset="1" stop-color="#8FB4FF" stop-opacity="0"/>
</radialGradient>
</defs>
</svg>
