<svg width="96" height="96" viewBox="0 0 96 96" fill="none" xmlns="http://www.w3.org/2000/svg">
<g clip-path="url(#clip0_8355_258930)">
<path opacity="0.4" d="M61.3793 59.6397C70.6016 43.5368 70.5405 26.1662 61.243 20.8415C51.9455 15.5168 36.9323 24.2542 27.71 40.3571C18.4878 56.46 18.5488 73.8306 27.8464 79.1553C37.1439 84.4801 52.1571 75.7426 61.3793 59.6397Z" stroke="#8FB4FF" stroke-linecap="round" stroke-linejoin="round"/>
<path opacity="0.4" d="M54.6464 55.7832C60.1797 46.1214 60.1431 35.6991 54.5646 32.5042C48.986 29.3094 39.9781 34.5519 34.4448 44.2136C28.9114 53.8754 28.9481 64.2977 34.5266 67.4925C40.1051 70.6874 49.113 65.4449 54.6464 55.7832Z" stroke="#8FB4FF" stroke-linecap="round" stroke-linejoin="round"/>
<path opacity="0.4" d="M47.9134 51.9267C49.7578 48.7061 49.7456 45.232 47.8861 44.167C46.0266 43.1021 43.024 44.8496 41.1795 48.0702C39.3351 51.2907 39.3473 54.7649 41.2068 55.8298C43.0663 56.8948 46.0689 55.1473 47.9134 51.9267Z" stroke="#8FB4FF" stroke-linecap="round" stroke-linejoin="round"/>
<path d="M68.1123 63.4963C81.0235 40.9522 80.938 16.6334 67.9215 9.17875C54.9049 1.72412 33.8864 13.9565 20.9753 36.5006C8.06419 59.0447 8.14964 83.3635 21.1662 90.8181C34.1827 98.2728 55.2012 86.0403 68.1123 63.4963Z" stroke="#8FB4FF" stroke-linecap="round" stroke-linejoin="round"/>
<path d="M68.1619 9.33001L61.1619 5.29001C55.1519 1.74001 46.8219 2.21001 37.6119 7.52001C19.2819 18.1 4.42188 43.91 4.42188 65.16C4.42188 75.9 8.21187 83.42 14.3319 86.87L21.1619 90.81" stroke="#8FB4FF" stroke-linecap="round" stroke-linejoin="round"/>
<path d="M87.8391 75L44.5391 50.02" stroke="#8FB4FF" stroke-linecap="round" stroke-linejoin="round"/>
<path d="M86.1109 68L93.0309 72L84.3709 73L82.6409 78L75.7109 74V68H86.1109Z" stroke="#8FB4FF" stroke-linecap="round" stroke-linejoin="round"/>
</g>
<defs>
<clipPath id="clip0_8355_258930">
<rect width="96" height="96" fill="white"/>
</clipPath>
</defs>
</svg>
