<svg xmlns="http://www.w3.org/2000/svg" viewBox="0 0 96 96"><g id="back"><line x1="65.32" y1="78" x2="60.45" y2="37.19" fill="none" stroke="#70a0ff" stroke-linecap="round" stroke-linejoin="round"/><line x1="8.12" y1="34.81" x2="2.97" y2="78" fill="none" stroke="#70a0ff" stroke-linecap="round" stroke-linejoin="round"/><ellipse cx="34.15" cy="78" rx="31.18" ry="16" fill="none" stroke="#70a0ff" stroke-linecap="round" stroke-linejoin="round"/></g><g id="front"><line x1="67.05" y1="33" x2="93.03" y2="48" fill="none" stroke="#70a0ff" stroke-linecap="round" stroke-linejoin="round"/><ellipse cx="91.27" cy="51.98" rx="4.37" ry="2.47" transform="translate(7.71 115.61) rotate(-66.95)" fill="none" stroke="#70a0ff" stroke-linecap="round" stroke-linejoin="round"/><line x1="64.95" y1="33.79" x2="59.02" y2="30.37" fill="none" stroke="#70a0ff" stroke-linecap="round" stroke-linejoin="round"/><ellipse cx="34.15" cy="18" rx="31.18" ry="16" fill="none" stroke="#70a0ff" stroke-linecap="round" stroke-linejoin="round"/><ellipse cx="34.14" cy="18" rx="24.25" ry="12" fill="none" stroke="#70a0ff" stroke-linecap="round" stroke-linejoin="round"/><path d="M16.82,20c0-4.42,7.76-8,17.32-8" fill="none" stroke="#70a0ff" stroke-linecap="round" stroke-linejoin="round"/><path d="M34.14,8C46.86,8,57.28,12.84,58.3,19a5.55,5.55,0,0,0,.09-1c0-6.63-10.85-12-24.25-12S9.89,11.37,9.89,18A6.64,6.64,0,0,0,10,19C11,12.84,21.43,8,34.14,8Z" fill="none" stroke="#70a0ff" stroke-linecap="round" stroke-linejoin="round"/><line x1="62.73" y1="38.5" x2="56.52" y2="34.92" fill="none" stroke="#70a0ff" stroke-linecap="round" stroke-linejoin="round"/><path d="M56.72,35c-.46-.14-.76-.66-.76-1.45a4.07,4.07,0,0,1,1.7-3.25,1.09,1.09,0,0,1,1.09-.1" fill="none" stroke="#70a0ff" stroke-linecap="round" stroke-linejoin="round"/><path d="M58.44,36C52.73,39.67,44,42,34.15,42,16.93,42,3,34.84,3,26V18" fill="none" stroke="#70a0ff" stroke-linecap="round" stroke-linejoin="round"/><path d="M65.32,18v8a9.92,9.92,0,0,1-2.65,6.47" fill="none" stroke="#70a0ff" stroke-linecap="round" stroke-linejoin="round"/><path d="M89.57,56l-26-15h0a2.62,2.62,0,0,1-.87-2.22,6.83,6.83,0,0,1,2.85-5.44,1.86,1.86,0,0,1,1.75-.2" fill="none" stroke="#70a0ff" stroke-linecap="round" stroke-linejoin="round"/></g></svg>