<svg xmlns="http://www.w3.org/2000/svg" viewBox="0 0 1440 2700"><defs><style>.cls-1{fill:none;stroke:#141419;stroke-miterlimit:10;}.cls-2{fill:#141419;}</style></defs><g id="connections"><g id="below"><line class="cls-1" x1="114.2" y1="2414.68" x2="84.2" y2="2432"/><line class="cls-1" x1="1227.4" y1="1960.15" x2="1197.4" y2="1942.83"/><polyline class="cls-1" points="972.6 348.12 1032.6 313.48 1062.6 330.8"/><polyline class="cls-1" points="518.85 1666.7 578.85 1632.06 608.85 1649.38"/><polyline class="cls-1" points="437.44 406.81 377.44 372.17 377.44 337.53"/><polyline class="cls-1" points="1281 1329.06 1341 1294.42 1371 1311.74"/><line class="cls-1" x1="37.4" y1="558.82" x2="67.4" y2="576.14"/><line class="cls-1" x1="39.8" y1="822.17" x2="69.8" y2="839.49"/><line class="cls-1" x1="69.8" y1="839.49" x2="99.8" y2="856.82"/><polyline class="cls-1" points="1250 512.36 1280 495.04 1310 512.36 1340 495.04"/><polyline class="cls-1" points="1050 136.27 1080 118.95 1080 84.31"/><polyline class="cls-1" points="320.34 2483.24 350.34 2465.92 350.34 2431.28"/><polyline class="cls-1" points="757.6 2098.31 757.6 2063.67 727.6 2046.35"/><polyline class="cls-1" points="205.4 972.7 175.4 990.02 205.4 1007.35"/><polyline class="cls-1" points="1386 1088.17 1356 1105.5 1386 1122.82"/><polyline class="cls-1" points="413.74 2283.45 383.74 2300.77 413.74 2318.09"/><polyline class="cls-1" points="227.6 1450.95 257.6 1433.63 287.6 1450.95 317.6 1433.63"/><polyline class="cls-1" points="1293.6 1802.06 1323.6 1784.74 1353.6 1802.06 1383.6 1784.74"/><polyline class="cls-1" points="24.8 2133.36 54.8 2116.04 84.8 2133.36 114.8 2116.04"/><polyline class="cls-1" points="1047.43 1318 1017.43 1300.68 987.43 1318 957.43 1300.68"/><polyline class="cls-1" points="1321.4 2465.92 1351.4 2448.6 1381.4 2465.92 1411.4 2448.6"/><polyline class="cls-1" points="124.8 1822.74 154.8 1840.06 124.8 1857.38"/><polyline class="cls-1" points="1232.6 2169.53 1262.6 2186.85 1232.6 2204.17"/><line class="cls-1" x1="1400" y1="115.13" x2="1400" y2="149.78"/><line class="cls-1" x1="1110.8" y1="219.11" x2="1140.8" y2="201.79"/><line class="cls-1" x1="1109" y1="1143.88" x2="1139" y2="1126.56"/><polyline class="cls-1" points="132.8 711.34 192.8 676.7 222.8 694.02"/><polyline class="cls-1" points="1295.6 723.98 1265.6 741.3 1235.6 723.98"/><line class="cls-1" x1="157.2" y1="378.29" x2="157.2" y2="412.93"/></g></g><g id="nodes"><g id="below-2" data-name="below"><circle class="cls-2" cx="67.4" cy="576.14" r="2.4"/><circle class="cls-2" cx="1250" cy="512.36" r="2.4"/><circle class="cls-2" cx="1280" cy="495.04" r="2.4"/><circle class="cls-2" cx="1340" cy="495.04" r="2.4"/><circle class="cls-2" cx="1310" cy="512.36" r="2.4"/><circle class="cls-2" cx="1400" cy="149.78" r="2.4"/><circle class="cls-2" cx="1400" cy="115.13" r="2.4"/><circle class="cls-2" cx="175.4" cy="990.03" r="2.4"/><circle class="cls-2" cx="205.4" cy="1007.35" r="2.4"/><circle class="cls-2" cx="205.4" cy="972.7" r="2.4"/><circle class="cls-2" cx="1356" cy="1105.5" r="2.4"/><circle class="cls-2" cx="1386" cy="1122.82" r="2.4"/><circle class="cls-2" cx="1386" cy="1088.18" r="2.4"/><circle class="cls-2" cx="383.74" cy="2300.77" r="2.4"/><circle class="cls-2" cx="413.74" cy="2318.09" r="2.4"/><circle class="cls-2" cx="413.74" cy="2283.45" r="2.4"/><circle class="cls-2" cx="227.6" cy="1450.95" r="2.4"/><circle class="cls-2" cx="257.6" cy="1433.63" r="2.4"/><circle class="cls-2" cx="317.6" cy="1433.63" r="2.4"/><circle class="cls-2" cx="287.6" cy="1450.95" r="2.4"/><circle class="cls-2" cx="1293.6" cy="1802.06" r="2.4"/><circle class="cls-2" cx="1323.6" cy="1784.74" r="2.4"/><circle class="cls-2" cx="1383.6" cy="1784.74" r="2.4"/><circle class="cls-2" cx="1353.6" cy="1802.06" r="2.4"/><circle class="cls-2" cx="24.8" cy="2133.36" r="2.4"/><circle class="cls-2" cx="54.8" cy="2116.04" r="2.4"/><circle class="cls-2" cx="114.8" cy="2116.04" r="2.4"/><circle class="cls-2" cx="84.8" cy="2133.36" r="2.4"/><circle class="cls-2" cx="1047.43" cy="1318" r="2.4"/><circle class="cls-2" cx="1017.43" cy="1300.68" r="2.4"/><circle class="cls-2" cx="957.43" cy="1300.68" r="2.4"/><circle class="cls-2" cx="987.43" cy="1318" r="2.4"/><circle class="cls-2" cx="1321.4" cy="2465.92" r="2.4"/><circle class="cls-2" cx="1351.4" cy="2448.6" r="2.4"/><circle class="cls-2" cx="1411.4" cy="2448.6" r="2.4"/><circle class="cls-2" cx="1381.4" cy="2465.92" r="2.4"/><circle class="cls-2" cx="154.8" cy="1840.06" r="2.4"/><circle class="cls-2" cx="124.8" cy="1857.38" r="2.4"/><circle class="cls-2" cx="124.8" cy="1822.74" r="2.4"/><circle class="cls-2" cx="1262.6" cy="2186.85" r="2.4"/><circle class="cls-2" cx="1232.6" cy="2204.17" r="2.4"/><circle class="cls-2" cx="1232.6" cy="2169.53" r="2.4"/><circle class="cls-2" cx="1050" cy="136.27" r="2.4"/><circle class="cls-2" cx="1080" cy="118.95" r="2.4"/><circle class="cls-2" cx="1080" cy="84.31" r="2.4"/><circle class="cls-2" cx="320.34" cy="2483.24" r="2.4"/><circle class="cls-2" cx="350.34" cy="2465.92" r="2.4"/><circle class="cls-2" cx="350.34" cy="2431.28" r="2.4"/><circle class="cls-2" cx="757.6" cy="2098.31" r="2.4"/><circle class="cls-2" cx="757.6" cy="2063.67" r="2.4"/><circle class="cls-2" cx="727.6" cy="2046.35" r="2.4"/><circle class="cls-2" cx="37.4" cy="558.82" r="2.4"/><circle class="cls-2" cx="69.8" cy="839.49" r="2.4"/><circle class="cls-2" cx="39.8" cy="822.17" r="2.4"/><circle class="cls-2" cx="99.8" cy="856.82" r="2.4"/><circle class="cls-2" cx="972.6" cy="348.12" r="2.4"/><circle class="cls-2" cx="1032.6" cy="313.48" r="2.4"/><circle class="cls-2" cx="1062.6" cy="330.8" r="2.4"/><circle class="cls-2" cx="518.85" cy="1666.7" r="2.4"/><circle class="cls-2" cx="578.85" cy="1632.06" r="2.4"/><circle class="cls-2" cx="608.85" cy="1649.38" r="2.4"/><circle class="cls-2" cx="437.44" cy="406.81" r="2.4"/><circle class="cls-2" cx="377.44" cy="372.17" r="2.4"/><circle class="cls-2" cx="377.44" cy="337.53" r="2.4"/><circle class="cls-2" cx="1281" cy="1329.06" r="2.4"/><circle class="cls-2" cx="1341" cy="1294.42" r="2.4"/><circle class="cls-2" cx="1371" cy="1311.74" r="2.4"/><circle class="cls-2" cx="1140.8" cy="201.79" r="2.4"/><circle class="cls-2" cx="157.2" cy="378.29" r="2.4"/><circle class="cls-2" cx="157.2" cy="412.93" r="2.4"/><circle class="cls-2" cx="132.8" cy="711.34" r="2.4"/><circle class="cls-2" cx="192.8" cy="676.7" r="2.4"/><circle class="cls-2" cx="222.8" cy="694.02" r="2.4"/><circle class="cls-2" cx="1295.6" cy="723.98" r="2.4"/><circle class="cls-2" cx="1265.6" cy="741.3" r="2.4"/><circle class="cls-2" cx="1235.6" cy="723.98" r="2.4"/><circle class="cls-2" cx="1110.8" cy="219.11" r="2.4"/><circle class="cls-2" cx="1139" cy="1126.56" r="2.4"/><circle class="cls-2" cx="1109" cy="1143.88" r="2.4"/><circle class="cls-2" cx="114.2" cy="2414.68" r="2.4"/><circle class="cls-2" cx="84.2" cy="2432" r="2.4"/><circle class="cls-2" cx="1227.4" cy="1960.15" r="2.4"/><circle class="cls-2" cx="1197.4" cy="1942.83" r="2.4"/></g></g></svg>