<svg width="96" height="96" viewBox="0 0 96 96" fill="none" xmlns="http://www.w3.org/2000/svg">
<g clip-path="url(#clip0_8358_260198)">
<path opacity="0.4" d="M28.7017 55.4599C31.5717 42.3599 40.6817 28.7499 51.4717 22.5199C64.5617 14.9599 75.1817 21.1399 75.1817 36.3199C75.1817 51.4999 64.5717 69.9399 51.4717 77.4999C38.3817 85.0599 27.7617 78.8799 27.7617 63.6999C27.7617 63.5699 27.7617 63.4399 27.7617 63.3199" stroke="#CC527A" stroke-linecap="round" stroke-linejoin="round"/>
<path opacity="0.4" d="M65.4305 38.7699C65.6005 39.6999 65.6905 40.6999 65.6905 41.7899C65.6905 50.8999 59.3205 61.9599 51.4605 66.4999C43.6005 71.0399 37.2305 67.3299 37.2305 58.2199C37.2305 49.1099 43.6005 38.0499 51.4605 33.5099C56.3705 30.6799 60.7005 31.0599 63.2605 33.9699" stroke="#CC527A" stroke-linecap="round" stroke-linejoin="round"/>
<path opacity="0.4" d="M54.8313 51.9316C56.6758 48.711 56.6636 45.2369 54.8041 44.172C52.9446 43.107 49.9419 44.8545 48.0975 48.0751C46.253 51.2957 46.2652 54.7698 48.1247 55.8348C49.9842 56.8997 52.9869 55.1522 54.8313 51.9316Z" stroke="#CC527A" stroke-linecap="round" stroke-linejoin="round"/>
<path d="M75.0303 63.5014C87.9414 40.9573 87.856 16.6385 74.8394 9.18388C61.8229 1.72924 40.8044 13.9617 27.8933 36.5058C14.9822 59.0498 15.0676 83.3686 28.0841 90.8233C41.1007 98.2779 62.1192 86.0455 75.0303 63.5014Z" stroke="#CC527A" stroke-linecap="round" stroke-linejoin="round"/>
<path d="M75.0798 9.33013L68.0798 5.29013C62.0698 1.74013 53.7398 2.21013 44.5298 7.52013C26.1998 18.1001 11.3398 43.9101 11.3398 65.1601C11.3398 75.9001 15.1298 83.4201 21.2498 86.8701L28.0798 90.8101" stroke="#CC527A" stroke-linecap="round" stroke-linejoin="round"/>
<path d="M31.4709 65.28L6.46094 22" stroke="#CC527A" stroke-linecap="round" stroke-linejoin="round"/>
<path d="M33.4727 58.3599L37.4727 65.2799L29.4727 61.8199L25.4727 65.2799L21.4727 58.3599L24.4727 53.1599L33.4727 58.3599Z" stroke="#CC527A" stroke-linecap="round" stroke-linejoin="round"/>
<path d="M67.0578 40.98L23.7578 16" stroke="#CC527A" stroke-linecap="round" stroke-linejoin="round"/>
<path d="M65.3197 33.98L72.2497 37.98L63.5897 38.98L61.8597 43.98L54.9297 39.98V33.98H65.3197Z" stroke="#CC527A" stroke-linecap="round" stroke-linejoin="round"/>
</g>
<defs>
<clipPath id="clip0_8358_260198">
<rect width="96" height="96" fill="white"/>
</clipPath>
</defs>
</svg>
