<svg xmlns="http://www.w3.org/2000/svg" viewBox="0 0 1440 2700"><defs><style>.cls-1{fill:none;stroke:#5a73a6;stroke-miterlimit:10;}.cls-2{fill:#5a73a6;}</style></defs><g id="connections"><g id="above"><line class="cls-1" x1="1220" y1="163.59" x2="1170" y2="134.72"/><line class="cls-1" x1="1270" y1="134.72" x2="1220" y2="163.59"/><line class="cls-1" x1="173.8" y1="1286.87" x2="123.8" y2="1258"/><line class="cls-1" x1="1119.5" y1="1673.1" x2="1169.5" y2="1701.97"/><line class="cls-1" x1="1069.5" y1="1701.97" x2="1119.5" y2="1673.1"/><line class="cls-1" x1="385.34" y1="1938.22" x2="335.34" y2="1909.35"/><line class="cls-1" x1="435.34" y1="1909.35" x2="385.34" y2="1938.22"/><line class="cls-1" x1="980.03" y1="2474.99" x2="1030.03" y2="2503.85"/><line class="cls-1" x1="880.03" y1="2474.99" x2="930.03" y2="2503.85"/><line class="cls-1" x1="930.03" y1="2503.85" x2="980.03" y2="2474.99"/><line class="cls-1" x1="1336.22" y1="1946.22" x2="1236.22" y2="2003.95"/><line class="cls-1" x1="123.8" y1="1258" x2="23.8" y2="1315.74"/><line class="cls-1" x1="119.34" y1="2324.49" x2="219.34" y2="2382.23"/><line class="cls-1" x1="1099" y1="528.25" x2="1149" y2="499.38"/><line class="cls-1" x1="85.8" y1="1597.17" x2="135.8" y2="1568.3"/><line class="cls-1" x1="1342.4" y1="1430.73" x2="1342.4" y2="1372.99"/><line class="cls-1" x1="123.8" y1="1258" x2="123.8" y2="1200.27"/><line class="cls-1" x1="1330" y1="240.19" x2="1430" y2="297.93"/><line class="cls-1" x1="1295" y1="915.06" x2="1245" y2="943.93"/><line class="cls-1" x1="1295" y1="857.33" x2="1295" y2="915.06"/><line class="cls-1" x1="85.8" y1="188.63" x2="135.8" y2="159.76"/><line class="cls-1" x1="85.8" y1="246.36" x2="85.8" y2="188.63"/><line class="cls-1" x1="443.34" y1="801.33" x2="493.34" y2="830.19"/><line class="cls-1" x1="1332.6" y1="2368.56" x2="1382.6" y2="2397.42"/></g></g><g id="nodes"><g id="above-2" data-name="above"><circle class="cls-2" cx="1170" cy="134.72" r="4"/><circle class="cls-2" cx="1270" cy="134.72" r="4"/><circle class="cls-2" cx="1236.22" cy="2003.95" r="4"/><circle class="cls-2" cx="1286.22" cy="1975.09" r="4"/><circle class="cls-2" cx="1336.22" cy="1946.22" r="4"/><circle class="cls-2" cx="23.8" cy="1315.74" r="4"/><circle class="cls-2" cx="73.8" cy="1286.87" r="4"/><circle class="cls-2" cx="123.8" cy="1258" r="4"/><circle class="cls-2" cx="219.34" cy="2382.23" r="4"/><circle class="cls-2" cx="169.34" cy="2353.36" r="4"/><circle class="cls-2" cx="119.34" cy="2324.49" r="4"/><circle class="cls-2" cx="1099" cy="528.25" r="4"/><circle class="cls-2" cx="443.34" cy="801.33" r="4"/><circle class="cls-2" cx="493.34" cy="830.19" r="4"/><circle class="cls-2" cx="1332.6" cy="2368.56" r="4"/><circle class="cls-2" cx="1382.6" cy="2397.42" r="4"/><circle class="cls-2" cx="1149" cy="499.38" r="4"/><circle class="cls-2" cx="85.8" cy="1597.17" r="4"/><circle class="cls-2" cx="135.8" cy="1568.3" r="4"/><circle class="cls-2" cx="1342.4" cy="1430.73" r="4"/><circle class="cls-2" cx="1342.4" cy="1372.99" r="4"/><circle class="cls-2" cx="123.8" cy="1200.27" r="4"/><circle class="cls-2" cx="1380" cy="269.06" r="4"/><circle class="cls-2" cx="1330" cy="240.19" r="4"/><circle class="cls-2" cx="1430" cy="297.93" r="4"/><circle class="cls-2" cx="1220" cy="163.59" r="4"/><circle class="cls-2" cx="1245" cy="943.93" r="4"/><circle class="cls-2" cx="1295" cy="857.33" r="4"/><circle class="cls-2" cx="1295" cy="915.06" r="4"/><circle class="cls-2" cx="135.8" cy="159.76" r="4"/><circle class="cls-2" cx="85.8" cy="246.36" r="4"/><circle class="cls-2" cx="85.8" cy="188.63" r="4"/><circle class="cls-2" cx="173.8" cy="1286.87" r="4"/><circle class="cls-2" cx="1169.5" cy="1701.97" r="4"/><circle class="cls-2" cx="1069.5" cy="1701.97" r="4"/><circle class="cls-2" cx="1119.5" cy="1673.1" r="4"/><circle class="cls-2" cx="335.34" cy="1909.35" r="4"/><circle class="cls-2" cx="435.34" cy="1909.35" r="4"/><circle class="cls-2" cx="385.34" cy="1938.22" r="4"/><circle class="cls-2" cx="1030.03" cy="2503.85" r="4"/><circle class="cls-2" cx="930.03" cy="2503.85" r="4"/><circle class="cls-2" cx="980.03" cy="2474.99" r="4"/><circle class="cls-2" cx="880.03" cy="2474.99" r="4"/></g></g></svg>