<svg width="144" height="144" viewBox="0 0 144 144" fill="none" xmlns="http://www.w3.org/2000/svg">
<g opacity="0.4">
<path d="M30.4351 81L20.1151 87C19.3204 87.4589 18.4193 87.7014 17.5017 87.7035C16.584 87.7056 15.6819 87.4671 14.8851 87.0118C14.0884 86.5565 13.4249 85.9003 12.9608 85.1087C12.4967 84.3171 12.2482 83.4176 12.2401 82.5V43.5C12.2564 41.6727 12.7492 39.8813 13.67 38.3029C14.5907 36.7244 15.9075 35.4136 17.4901 34.5L61.5001 9.00003C62.294 8.53637 63.196 8.28998 64.1154 8.28564C65.0348 8.28131 65.9391 8.51918 66.7374 8.97533C67.5357 9.43148 68.1997 10.0898 68.6628 10.8841C69.1258 11.6784 69.3715 12.5806 69.3751 13.5V22.5" stroke="#70A0FF" stroke-linecap="round" stroke-linejoin="round"/>
<path d="M14.835 87L7.08 82.5C6.29507 82.0398 5.64405 81.3825 5.19149 80.5931C4.73893 79.8038 4.50056 78.9099 4.5 78V39C4.51168 37.1771 4.99775 35.3886 5.91039 33.8106C6.82303 32.2325 8.13079 30.9193 9.705 30L53.79 4.50001C54.5896 4.04358 55.4943 3.80353 56.415 3.80353C57.3357 3.80353 58.2404 4.04358 59.04 4.50001L66.81 9.00001" stroke="#70A0FF" stroke-linecap="round" stroke-linejoin="round"/>
</g>
<path d="M74.5949 100.5L64.1999 106.5V124.5L48.6149 115.5L46.1099 117C45.3152 117.459 44.4142 117.701 43.4965 117.703C42.5789 117.706 41.6767 117.467 40.88 117.012C40.0832 116.557 39.4197 115.9 38.9556 115.109C38.4915 114.317 38.243 113.418 38.2349 112.5V55.5C38.2264 53.6458 38.7091 51.8224 39.6339 50.2152C40.5587 48.6081 41.8926 47.2745 43.4999 46.35L108.3 9.00002C109.094 8.54486 109.994 8.3053 110.909 8.30511C111.825 8.30493 112.724 8.54413 113.519 8.99898C114.313 9.45383 114.975 10.1085 115.438 10.8981C115.902 11.6876 116.15 12.5846 116.16 13.5V55.5" stroke="#70A0FF" stroke-linecap="round" stroke-linejoin="round"/>
<path d="M40.83 117L33 112.5C32.2087 112.043 31.5503 111.388 31.09 110.599C30.6296 109.809 30.3831 108.914 30.375 108V51C30.3958 49.1683 30.8955 47.374 31.8244 45.7951C32.7533 44.2163 34.079 42.9079 35.67 42L100.5 4.50001C101.3 4.04358 102.204 3.80353 103.125 3.80353C104.046 3.80353 104.95 4.04358 105.75 4.50001L113.535 9.00001" stroke="#70A0FF" stroke-linecap="round" stroke-linejoin="round"/>
<path d="M134.415 105L111 118.5L97.9801 141V126L90.2701 130.5C89.4754 130.959 88.5743 131.201 87.6567 131.203C86.739 131.206 85.8369 130.967 85.0401 130.512C84.2434 130.056 83.5799 129.4 83.1158 128.609C82.6517 127.817 82.4032 126.918 82.3951 126V90C82.3972 88.1559 82.8849 86.345 83.8091 84.7493C84.7334 83.1535 86.0616 81.8294 87.6601 80.91L131.79 55.5C132.586 55.0459 133.486 54.8071 134.402 54.8073C135.317 54.8074 136.218 55.0465 137.013 55.501C137.808 55.9554 138.471 56.6094 138.936 57.3984C139.401 58.1874 139.653 59.0842 139.665 60V95.88C139.67 97.7277 139.187 99.5439 138.265 101.145C137.343 102.746 136.015 104.076 134.415 105V105Z" stroke="#70A0FF" stroke-linecap="round" stroke-linejoin="round"/>
<path d="M84.99 130.5L77.22 126C76.4287 125.543 75.7703 124.888 75.3099 124.099C74.8495 123.309 74.6031 122.414 74.595 121.5V85.5C74.6112 83.6727 75.1041 81.8813 76.0249 80.3029C76.9456 78.7245 78.2624 77.4136 79.845 76.5L124.05 51C124.847 50.5363 125.753 50.292 126.675 50.292C127.597 50.292 128.503 50.5363 129.3 51L137.055 55.5" stroke="#70A0FF" stroke-linecap="round" stroke-linejoin="round"/>
<path d="M97.9801 141L90.1801 136.5L90.2701 130.455" stroke="#70A0FF" stroke-linecap="round" stroke-linejoin="round"/>
<path d="M53.8199 58.5L102.885 30.165" stroke="#70A0FF" stroke-linecap="round" stroke-linejoin="round"/>
<path d="M53.8199 67.5L103.17 39" stroke="#70A0FF" stroke-linecap="round" stroke-linejoin="round"/>
<path d="M53.8199 76.5L103.17 48" stroke="#70A0FF" stroke-linecap="round" stroke-linejoin="round"/>
<path d="M53.8199 85.5L103.17 57" stroke="#70A0FF" stroke-linecap="round" stroke-linejoin="round"/>
<path d="M53.8199 94.5L74.9849 82.725" stroke="#70A0FF" stroke-linecap="round" stroke-linejoin="round"/>
<path d="M95.3849 91.5L129.165 72" stroke="#70A0FF" stroke-linecap="round" stroke-linejoin="round"/>
<path d="M95.3849 100.5L129.165 81" stroke="#70A0FF" stroke-linecap="round" stroke-linejoin="round"/>
<path d="M95.3849 109.5L121.365 94.5" stroke="#70A0FF" stroke-linecap="round" stroke-linejoin="round"/>
</svg>
