<svg xmlns="http://www.w3.org/2000/svg" viewBox="0 0 96 96"><g id="back"><g opacity="0.4"><polyline points="34.35 5.87 37.61 3.99 89.57 33.98" fill="none" stroke="#70a0ff" stroke-linecap="round" stroke-linejoin="round"/><polyline points="82.64 81.98 89.56 77.99 89.57 33.98 82.64 37.98 82.64 81.98 75.69 77.97" fill="none" stroke="#70a0ff" stroke-linecap="round" stroke-linejoin="round"/><line x1="75.69" y1="69.89" x2="82.64" y2="81.98" fill="none" stroke="#70a0ff" stroke-linecap="round" stroke-linejoin="round"/><line x1="82.64" y1="37.98" x2="39.16" y2="12.88" fill="none" stroke="#70a0ff" stroke-linecap="round" stroke-linejoin="round"/><line x1="82.64" y1="37.98" x2="75.69" y2="42" fill="none" stroke="#70a0ff" stroke-linecap="round" stroke-linejoin="round"/><line x1="46.25" y1="22.98" x2="75.71" y2="39.98" fill="none" stroke="#70a0ff" stroke-linecap="round" stroke-linejoin="round"/><polyline points="68.78 87.98 75.71 83.99 75.71 39.98 68.78 43.98 68.78 87.98 61.83 83.97" fill="none" stroke="#70a0ff" stroke-linecap="round" stroke-linejoin="round"/><line x1="61.92" y1="76.05" x2="68.78" y2="87.98" fill="none" stroke="#70a0ff" stroke-linecap="round" stroke-linejoin="round"/><line x1="68.78" y1="43.98" x2="58.38" y2="37.98" fill="none" stroke="#70a0ff" stroke-linecap="round" stroke-linejoin="round"/></g></g><g id="front"><line x1="58.38" y1="36" x2="58.38" y2="47.99" fill="none" stroke="#70a0ff" stroke-linecap="round" stroke-linejoin="round"/><polygon points="58.38 36 54.88 37.98 6.41 10 9.87 8 58.38 36" fill="none" stroke="#70a0ff" stroke-linecap="round" stroke-linejoin="round"/><line x1="6.41" y1="10" x2="6.41" y2="22" fill="none" stroke="#70a0ff" stroke-linecap="round" stroke-linejoin="round"/><line x1="54.91" y1="50" x2="54.88" y2="37.98" fill="none" stroke="#70a0ff" stroke-linecap="round" stroke-linejoin="round"/><polyline points="54.91 94 61.83 90 61.84 46 54.91 50 54.91 94 2.94 64 2.94 20 6.41 18" fill="none" stroke="#70a0ff" stroke-linecap="round" stroke-linejoin="round"/><path d="M3,64,26.44,51.47a4,4,0,0,1,4,1.54l24.5,41" fill="none" stroke="#70a0ff" stroke-linecap="round" stroke-linejoin="round"/><polyline points="24.57 52.47 6.41 22 2.94 20" fill="none" stroke="#70a0ff" stroke-linecap="round" stroke-linejoin="round"/><polyline points="54.91 50 51.44 48 33.58 58.31" fill="none" stroke="#70a0ff" stroke-linecap="round" stroke-linejoin="round"/><line x1="44.51" y1="44" x2="16.8" y2="28" fill="none" stroke="#70a0ff" stroke-linecap="round" stroke-linejoin="round"/><line x1="44.51" y1="50" x2="16.8" y2="34" fill="none" stroke="#70a0ff" stroke-linecap="round" stroke-linejoin="round"/><line x1="41.05" y1="54" x2="17.32" y2="40.3" fill="none" stroke="#70a0ff" stroke-linecap="round" stroke-linejoin="round"/><line x1="35.8" y1="56.97" x2="31.15" y2="54.28" fill="none" stroke="#70a0ff" stroke-linecap="round" stroke-linejoin="round"/><polyline points="52.77 32.76 32.39 3 16.8 12" fill="none" stroke="#70a0ff" stroke-linecap="round" stroke-linejoin="round"/><line x1="61.84" y1="46" x2="58.39" y2="40.97" fill="none" stroke="#70a0ff" stroke-linecap="round" stroke-linejoin="round"/><line x1="26.33" y1="51.5" x2="22.77" y2="49.45" fill="none" stroke="#70a0ff" stroke-linecap="round" stroke-linejoin="round"/></g></svg>