<svg width="20" height="24" viewBox="0 0 20 24" fill="none" xmlns="http://www.w3.org/2000/svg">
    <path d="M4.72 22.5599H0.5V7.77995H4.72V22.5599ZM2.61 5.66995C1.44 5.66995 0.5 4.71995 0.5 3.55995C0.5 2.39995 1.45 1.44995 2.61 1.44995C3.77 1.44995 4.72 2.39995 4.72 3.55995C4.72 4.71995 3.77 5.66995 2.61 5.66995V5.66995ZM19.5 22.5599H15.28V14.11C15.28 12.94 14.33 12 13.17 12C12.01 12 11.06 12.95 11.06 14.11V22.5499H6.84V7.77995H11.06V10.4C11.93 9.19995 13.26 7.77995 14.75 7.77995C17.37 7.77995 19.5 10.14 19.5 13.06V22.5599V22.5599Z" stroke="#8FB4FF" stroke-linecap="round" stroke-linejoin="round"/>
</svg>
