<svg width="23" height="20" viewBox="0 0 23 20" fill="none" xmlns="http://www.w3.org/2000/svg">
    <path d="M22.41 3.96007C22.64 3.70007 22.37 3.31007 22.04 3.41007C21.54 3.56007 21.02 3.67007 20.49 3.73007C21.15 3.33007 21.71 2.78007 22.1 2.11007C22.27 1.82007 21.97 1.48007 21.65 1.62007C21.05 1.89007 20.42 2.11007 19.77 2.25007C19.65 2.28007 19.53 2.24007 19.45 2.15007C18.61 1.33007 17.47 0.820068 16.2 0.820068C13.36 0.820068 11.24 3.33007 11.6 6.06007C11.63 6.29007 11.46 6.49007 11.23 6.47007C7.75 6.18007 4.65 4.53007 2.47 2.06007C2.3 1.86007 1.99 1.92007 1.88 2.16007C1.02 4.16007 1.66 6.58007 3.56 7.85007C3 7.83007 2.46 7.71007 1.96 7.51007C1.72 7.41007 1.46 7.62007 1.49 7.88007C1.71 9.79007 3.16 11.4701 5.18 11.8701C4.7 12.0001 4.18 12.0601 3.65 12.0201C3.38 12.0001 3.2 12.2801 3.32 12.5201C3.93 13.8101 5.12 14.7701 6.56 15.0701C6.86 15.1301 6.92 15.5401 6.66 15.7001C5.25 16.6001 3.63 17.0901 1.96 17.1401C1.61 17.1501 1.5 17.6301 1.81 17.7901C3.57 18.6701 5.56 19.1601 7.66 19.1601C16.19 19.1601 21.04 12.0201 20.84 5.55007C20.84 5.44007 20.89 5.34007 20.97 5.28007C21.49 4.89007 21.98 4.44007 22.41 3.94007V3.96007Z" stroke="#8FB4FF" stroke-linecap="round" stroke-linejoin="round"/>
</svg>
